<svg id="Capa_1" enable-background="new 0 0 512 512" height="512" viewBox="0 0 512 512" width="512" xmlns="http://www.w3.org/2000/svg"><g><path d="m313.131 84.862c9.546-54.495 61.466-90.936 115.96-81.39 38.55 6.753 68.07 34.714 78.648 69.789l-88.734 128.828c-8.006.569-16.211.183-24.484-1.266-54.495-9.546-90.936-61.466-81.39-115.961z" fill="#e4986c"/><path d="m198.869 84.862c-9.546-54.495-61.465-90.936-115.96-81.39-38.55 6.753-68.07 34.714-78.648 69.789l88.734 128.828c8.006.569 16.211.183 24.484-1.266 54.495-9.546 90.936-61.466 81.39-115.961z" fill="#e4986c"/><path d="m39.421 124.308 53.573 77.78c8.006.569 16.211.183 24.484-1.266 54.495-9.546 90.936-61.465 81.39-115.96-3.424-19.548-12.302-36.772-24.793-50.384-43.66 13.234-83.662 37.094-116.832 70.265-6.281 6.281-12.217 12.815-17.822 19.565z" fill="#df8956"/><path d="m454.757 104.742c-33.171-33.171-73.172-57.03-116.832-70.264-12.492 13.613-21.369 30.836-24.793 50.384-9.546 54.495 26.895 106.414 81.39 115.96 8.273 1.449 16.478 1.834 24.484 1.266l53.573-77.78c-5.605-6.75-11.541-13.284-17.822-19.566z" fill="#df8956"/><path d="m129.949 121.298c-7.468-42.633-48.075-71.134-90.708-63.666-13.237 2.319-25.117 7.833-34.98 15.629-4.392 14.501-5.535 30.227-2.742 46.171 8.097 46.222 46.687 79.461 91.476 82.656 27.052-16.189 42.717-47.891 36.954-80.79z" fill="#ffc8d3"/><path d="m382.051 121.298c7.468-42.633 48.075-71.134 90.708-63.666 13.237 2.319 25.117 7.833 34.98 15.629 4.392 14.501 5.535 30.227 2.742 46.171-8.097 46.222-46.687 79.461-91.476 82.656-27.052-16.189-42.717-47.891-36.954-80.79z" fill="#ffc8d3"/><path d="m16.181 156.718c16.919 26.016 45.326 43.124 76.813 45.37 27.053-16.189 42.717-47.892 36.954-80.79-3.711-21.186-15.61-38.876-31.87-50.402-14.487 9.88-28.165 21.176-40.835 33.847-15.873 15.873-29.596 33.321-41.062 51.975z" fill="#ffa0ab"/><path d="m495.819 156.718c-11.465-18.654-25.188-36.102-41.062-51.976-12.671-12.671-26.348-23.966-40.835-33.846-16.26 11.527-28.159 29.216-31.87 50.402-5.763 32.899 9.901 64.601 36.954 80.79 31.487-2.246 59.894-19.354 76.813-45.37z" fill="#ffa0ab"/><path d="m506.179 303.499c0 138.17-112.009 206.548-250.179 206.548s-250.179-68.378-250.179-206.548 112.009-250.179 250.179-250.179 250.179 112.009 250.179 250.179z" fill="#e4986c"/><g><g><g><ellipse cx="143.044" cy="293.184" fill="#fff0ce" rx="30.912" ry="38.817" transform="matrix(.002 -1 1 .002 -150.453 435.585)"/></g></g></g><g><g><g><ellipse cx="368.956" cy="293.184" fill="#fff0ce" rx="38.817" ry="30.912" transform="matrix(1 -.002 .002 1 -.642 .809)"/></g></g></g><path d="m163.978 246.658c-4.267 0-7.726 3.459-7.726 7.726v15.775c0 4.267 3.459 7.726 7.726 7.726s7.726-3.459 7.726-7.726v-15.775c.001-4.266-3.459-7.726-7.726-7.726z" fill="#344152"/><path d="m348.022 246.658c-4.267 0-7.726 3.459-7.726 7.726v15.775c0 4.267 3.459 7.726 7.726 7.726s7.726-3.459 7.726-7.726v-15.775c0-4.266-3.459-7.726-7.726-7.726z" fill="#344152"/><path d="m77.22 243.829c0-54.139 14.575-104.868 39.996-148.502-67.158 44.862-111.395 121.347-111.395 208.172 0 134.156 105.598 202.51 238.209 206.369-98.726-47.825-166.81-148.978-166.81-266.039z" fill="#df8956"/><path d="m334.184 315.66c0 38.484-28.98 58.773-78.184 58.773s-78.184-20.289-78.184-58.773 28.98-69.681 78.184-69.681 78.184 31.197 78.184 69.681z" fill="#ffc8d3"/><g><path d="m255.874 287.134c8.018 0 19.205-7.053 19.205-14.356 0-5.336-7.719-7.216-19.205-7.216s-19.205 1.88-19.205 7.216c0 7.302 11.187 14.356 19.205 14.356z" fill="#344152"/></g><path d="m294.131 298.017c-4.267 0-7.726 3.459-7.726 7.726 0 6.218-5.058 11.276-11.276 11.276s-11.276-5.058-11.276-11.276c0-4.267-3.459-7.726-7.726-7.726s-7.726 3.459-7.726 7.726c0 6.218-5.058 11.276-11.276 11.276s-11.276-5.058-11.276-11.276c0-4.267-3.459-7.726-7.726-7.726s-7.726 3.459-7.726 7.726c0 14.738 11.99 26.729 26.729 26.729 7.427 0 14.153-3.047 19.002-7.954 4.849 4.907 11.575 7.954 19.002 7.954 14.738 0 26.729-11.99 26.729-26.729-.002-4.267-3.461-7.726-7.728-7.726z" fill="#344152"/></g></svg>