<svg id="Capa_1" enable-background="new 0 0 512 512" height="512" viewBox="0 0 512 512" width="512" xmlns="http://www.w3.org/2000/svg"><g><path d="m404.635 382.217s27.601 95.585-131.882 95.585h-33.506c-159.483 0-131.882-95.585-131.882-95.585z" fill="#81ddff"/><path d="m143.083 97.634 51.881-49.791c-36.864-44.093-94.506-49.425-131.36-47.518-21.745 1.131-39.627 17.749-42.287 39.362-.703 5.719-1.264 11.989-1.55 18.697z" fill="#ffb25a"/><path d="m368.917 97.634-51.881-49.791c36.864-44.093 94.506-49.425 131.36-47.518 21.745 1.132 39.627 17.749 42.288 39.362.703 5.719 1.264 11.989 1.55 18.697z" fill="#615382"/><path d="m84.371 78.946 58.712 18.687 51.881-49.791c-8.001-9.569-16.981-17.307-26.514-23.548-31.353 12.148-60.145 30.898-84.079 54.652z" fill="#ff9c20"/><path d="m343.55 24.295c-9.533 6.24-18.514 13.979-26.514 23.548l51.881 49.791 58.712-18.687c-23.934-23.755-52.726-42.505-84.079-54.652z" fill="#4e3a65"/><path d="m456.806 181.985-87.889-84.351c14.528-29.738 45.071-50.209 80.396-50.209 15.557 0 30.176 3.976 42.92 10.959 1.519 34.907-4.292 81.609-35.427 123.601z" fill="#ffc8d3"/><path d="m55.194 181.985 87.889-84.351c-14.528-29.738-45.071-50.209-80.396-50.209-15.557 0-30.176 3.976-42.92 10.959-1.519 34.907 4.292 81.609 35.427 123.601z" fill="#ffc8d3"/><path d="m249.759 449.941c0-26.989 11.865-51.204 30.658-67.724h-173.052s-27.601 95.585 131.882 95.585h14.907c-2.849-8.775-4.395-18.137-4.395-27.861z" fill="#5bd4ff"/><path d="m468.388 251.32c0 117.301-95.087 171.608-212.388 171.608s-212.388-54.307-212.388-171.608l151.352-203.477c19.329-5.791 39.821-8.9 61.036-8.9s41.707 3.109 61.036 8.9z" fill="#eae9fb"/><path d="m35.562 148.156c5.014 11.402 11.439 22.779 19.632 33.829l87.889-84.352c-7.905-16.181-20.559-29.608-36.138-38.496-16.933 13.128-32.182 28.464-45.144 45.614-10.339 13.679-19.1 28.211-26.239 43.405z" fill="#ffa0ab"/><path d="m106.947 188.561c0-8.048.385-16.005 1.1-23.867l-64.435 86.626c0 116.592 93.945 170.941 210.267 171.593-86.962-42.132-146.932-131.237-146.932-234.352z" fill="#ceceec"/><path d="m43.612 251.32c0-96.075 63.799-177.256 151.352-203.477 61.892 136.253 8.176 259.742-151.352 203.477z" fill="#ffb25a"/><path d="m476.438 148.156c-7.14-15.194-15.9-29.726-26.239-43.405-12.962-17.15-28.212-32.486-45.144-45.614-15.579 8.888-28.233 22.315-36.138 38.496l87.889 84.352c8.194-11.05 14.619-22.427 19.632-33.829z" fill="#ffa0ab"/><path d="m468.388 251.32c-159.528 56.265-213.244-67.224-151.352-203.477 87.553 26.22 151.352 107.401 151.352 203.477z" fill="#615382"/><g fill="#344152"><path d="m166.786 195.566c-4.268 0-7.726 3.46-7.726 7.726v15.206c0 4.267 3.459 7.726 7.726 7.726 4.268 0 7.726-3.459 7.726-7.726v-15.206c0-4.267-3.459-7.726-7.726-7.726z"/><path d="m345.214 195.566c-4.268 0-7.726 3.46-7.726 7.726v15.206c0 4.267 3.459 7.726 7.726 7.726s7.726-3.459 7.726-7.726v-15.206c.001-4.267-3.458-7.726-7.726-7.726z"/><path d="m290.198 237.137c-4.268 0-7.726 3.459-7.726 7.726 0 5.105-4.153 9.258-9.258 9.258s-9.258-4.153-9.258-9.258c0-4.267-3.459-7.726-7.726-7.726-4.268 0-7.726 3.459-7.726 7.726 0 5.105-4.153 9.258-9.257 9.258-5.105 0-9.258-4.153-9.258-9.258 0-4.267-3.459-7.726-7.726-7.726s-7.726 3.459-7.726 7.726c0 13.625 11.085 24.71 24.71 24.71 6.574 0 12.552-2.586 16.983-6.787 4.432 4.201 10.409 6.787 16.984 6.787 13.626 0 24.71-11.085 24.71-24.71.001-4.267-3.458-7.726-7.726-7.726z"/><path d="m72.484 304.621c4.213.667 8.162-2.197 8.838-6.402.679-4.213-2.186-8.178-6.399-8.856-1.304-.21-32.158-4.936-54.937 12.564-3.383 2.6-4.019 7.45-1.42 10.835 1.521 1.98 3.814 3.019 6.133 3.019 1.642 0 3.298-.522 4.701-1.6 17.415-13.38 42.829-9.6 43.084-9.56z"/><path d="m85.958 322.976c-1.307.178-32.203 4.64-48.899 28.013-2.481 3.472-1.677 8.297 1.796 10.778 1.361.973 2.93 1.44 4.484 1.44 2.41 0 4.786-1.125 6.294-3.235 12.726-17.815 38.025-21.628 38.432-21.687 4.22-.585 7.172-4.476 6.595-8.698-.579-4.23-4.478-7.19-8.702-6.611z"/><path d="m492.014 301.926c-22.777-17.5-53.635-12.774-54.937-12.564-4.213.678-7.078 4.643-6.399 8.856.678 4.212 4.644 7.078 8.856 6.399.253-.04 25.517-3.92 43.065 9.562 1.403 1.078 3.059 1.6 4.701 1.6 2.319 0 4.612-1.039 6.133-3.019 2.6-3.383 1.964-8.234-1.419-10.834z"/><path d="m426.042 322.976c-4.206-.578-8.102 2.373-8.689 6.593-.587 4.219 2.362 8.118 6.58 8.715.255.036 25.669 3.818 38.435 21.687 1.508 2.111 3.882 3.235 6.294 3.235 1.554 0 3.123-.467 4.484-1.44 3.473-2.481 4.277-7.306 1.796-10.778-16.697-23.372-47.593-27.834-48.9-28.012z"/></g><circle cx="256" cy="483.429" fill="#f6ec80" r="28.571"/><path d="m106.947 188.561c0-38.819 8.512-75.645 23.751-108.735-52.797 38.638-87.086 101.062-87.086 171.494 28.285 9.976 53.239 14.295 74.817 13.9-7.459-24.235-11.482-49.977-11.482-76.659z" fill="#ff9c20"/><path d="m252.909 472.77c0-6.473 1.641-12.562 4.528-17.875-.476-.024-.956-.037-1.438-.037-15.779 0-28.571 12.792-28.571 28.571s12.793 28.571 28.572 28.571c6.517 0 12.521-2.186 17.328-5.86-12.119-6.21-20.419-18.817-20.419-33.37z" fill="#edda05"/></g></svg>