<svg id="Capa_1" enable-background="new 0 0 512 512" height="512" viewBox="0 0 512 512" width="512" xmlns="http://www.w3.org/2000/svg"><g><path d="m512 276.773c0 141.385-114.615 214.453-256 214.453s-256-73.068-256-214.453 114.615-256 256-256 256 114.616 256 256z" fill="#615382"/><path d="m121.204 243.193c0-93.013 47.983-174.808 120.536-222.018-134.75 7.4-241.74 119-241.74 255.598 0 141.385 114.615 214.453 256 214.453 11.375 0 22.573-.479 33.555-1.423-98.546-38.531-168.351-134.415-168.351-246.61z" fill="#4e3a65"/><path d="m231.317 270.098v-13.619c0-94.052-126.812-134.214-159.363-56.278-9.851 23.586-15.294 49.457-15.294 76.572 0 49.315 17.853 88.173 53.054 115.483 30.184 23.416 72.741 37.808 121.603 41.413 8.066.598 16.297.896 24.683.896s16.617-.299 24.683-.896c48.861-3.606 91.418-17.997 121.603-41.413 35.201-27.31 53.054-66.169 53.054-115.483 0-27.115-5.442-52.986-15.293-76.572-32.559-77.956-159.363-37.761-159.363 56.278v13.619z" fill="#eae9fb"/><path d="m316.832 313.809c.021.546.031 1.092.031 1.638 0 20.222-14.866 37.622-36.18 45.338-7.541 2.73-15.896 4.244-24.683 4.244s-17.142-1.514-24.683-4.244c-21.314-7.716-36.18-25.116-36.18-45.338 0-.546.01-1.092.031-1.638z" fill="#ff9c20"/><path d="m316.832 313.809c-17.029 7.582-38.065 12.063-60.832 12.063s-43.803-4.481-60.832-12.063c.783-19.532 15.411-36.201 36.149-43.711 7.541-2.73 15.896-4.244 24.683-4.244s17.142 1.514 24.683 4.244c20.738 7.51 35.366 24.178 36.149 43.711z" fill="#ffb25a"/><path d="m121.204 243.193c0-29.451 4.817-57.775 13.693-84.236-26.389-.018-51.006 12.663-62.944 41.245-9.851 23.586-15.294 49.457-15.294 76.572 0 49.315 17.853 88.174 53.054 115.483 23.023 17.861 53.251 30.464 87.978 37.042-47.282-47.816-76.487-113.547-76.487-186.106z" fill="#ceceec"/><g><g><g><ellipse cx="143.99" cy="310.604" fill="#ffa0ab" rx="41.329" ry="32.913"/></g><g><ellipse cx="368.01" cy="310.604" fill="#ffa0ab" rx="41.329" ry="32.913"/></g></g></g><g fill="#344152"><path d="m168.077 255.33c-4.268 0-7.726 3.459-7.726 7.726v15.865c0 4.267 3.459 7.726 7.726 7.726s7.726-3.459 7.726-7.726v-15.865c.001-4.267-3.458-7.726-7.726-7.726z"/><path d="m343.923 286.648c4.268 0 7.726-3.459 7.726-7.726v-15.865c0-4.267-3.459-7.726-7.726-7.726-4.268 0-7.726 3.459-7.726 7.726v15.865c0 4.266 3.459 7.726 7.726 7.726z"/></g></g></svg>