<svg id="Flat" height="512" viewBox="0 0 512 512" width="512" xmlns="http://www.w3.org/2000/svg"><path d="m488 344v104c0 17.67-103.87012 32-232 32s-232-14.33-232-32v-104z" fill="#3ea7ff"/><ellipse cx="256" cy="344" fill="#2b7cd4" rx="232" ry="32"/><path d="m160 405.2c12.89014.79 26.26 1.42 40 1.88v39.96q-21.39-.75-40-1.98z" fill="#eb352f"/><path d="m272 407.93v39.99q-7.86034.075-16 .08-12.33 0-24-.17v-40q11.8949.16506 24 .17 8.03979 0 16-.07z" fill="#f2e368"/><path d="m344 405.67v39.88q-18.68994 1.095-40 1.75v-39.97c13.7002-.39 27.08008-.94 40-1.66z" fill="#a0cc00"/><g fill="#2b7cd4"><path d="m417.04 447.1c-5.16016.68-10.60986 1.34-16.16992 1.94l-1.73-15.8-.01026-.1c5.4502-.6 10.78028-1.24 15.83008-1.9l.02.13z"/><path d="m488 412.91v16.01a54.77441 54.77441 0 0 1 -12.16992 5.91c-10.03028 3.66-24.36035 7-42.56006 9.92l-2.51025-15.6c32.26023-5 48.88037-10.6 57.24023-16.24z"/><path d="m417.0127 414.90118c-5.16016.68-10.60987 1.34-16.16993 1.94l-1.73-15.8-.01025-.1c5.45019-.6 10.78027-1.24 15.83008-1.9l.02.13z"/><path d="m487.97266 380.71118v16.01a54.77378 54.77378 0 0 1 -12.16993 5.91c-10.03027 3.66-24.36035 7-42.56 9.92005l-2.51026-15.6c32.26021-5.00006 48.88032-10.60003 57.24019-16.24005z"/></g><path d="m488 208v104c0 17.67-103.87012 32-232 32s-232-14.33-232-32v-104z" fill="#3ea7ff"/><ellipse cx="256" cy="208" fill="#2b7cd4" rx="232" ry="32"/><path d="m160 269.2c12.89014.79 26.26 1.42 40 1.88v39.96q-21.39-.75-40-1.98z" fill="#eb352f"/><path d="m272 271.93v39.99q-7.86034.075-16 .08-12.33 0-24-.17v-40q11.8949.16506 24 .17 8.03979 0 16-.07z" fill="#f2e368"/><path d="m344 269.67v39.88q-18.68994 1.095-40 1.75v-39.97c13.7002-.39 27.08008-.94 40-1.66z" fill="#a0cc00"/><path d="m417.04 311.1c-5.16016.68-10.60986 1.34-16.16992 1.94l-1.73-15.8-.01026-.1c5.4502-.6 10.78028-1.24 15.83008-1.9l.02.13z" fill="#2b7cd4"/><path d="m488 276.91v16.01a54.77441 54.77441 0 0 1 -12.16992 5.91c-10.03028 3.66-24.36035 7-42.56006 9.92l-2.51025-15.6c32.26023-5 48.88037-10.6 57.24023-16.24z" fill="#2b7cd4"/><path d="m417.0127 278.90118c-5.16016.68-10.60987 1.34-16.16993 1.94l-1.73-15.8-.01025-.1c5.45019-.6 10.78027-1.24 15.83008-1.9l.02.13z" fill="#2b7cd4"/><path d="m487.97266 244.71118v16.01a54.77378 54.77378 0 0 1 -12.16993 5.91c-10.03027 3.66-24.36035 7-42.56 9.92005l-2.51026-15.6c32.26021-5.00006 48.88032-10.60003 57.24019-16.24005z" fill="#2b7cd4"/><path d="m488 72v104c0 17.67-103.87012 32-232 32s-232-14.33-232-32v-104z" fill="#3ea7ff"/><ellipse cx="256" cy="72" fill="#2b7cd4" rx="232" ry="32"/><path d="m160 133.2c12.89014.79 26.26 1.42 40 1.88v39.96q-21.39-.75-40-1.98z" fill="#eb352f"/><path d="m272 135.93v39.99q-7.86034.075-16 .08-12.33 0-24-.17v-40q11.8949.16506 24 .17 8.03979 0 16-.07z" fill="#f2e368"/><path d="m344 133.67v39.88q-18.68994 1.095-40 1.75v-39.97c13.7002-.39 27.08008-.94 40-1.66z" fill="#a0cc00"/><path d="m417.04 175.1c-5.16016.68-10.60986 1.34-16.16992 1.94l-1.73-15.8-.01026-.1c5.4502-.6 10.78028-1.24 15.83008-1.9l.02.13z" fill="#2b7cd4"/><path d="m488 140.91v16.01a54.77441 54.77441 0 0 1 -12.16992 5.91c-10.03028 3.66-24.36035 7-42.56006 9.92l-2.51025-15.6c32.26023-5 48.88037-10.6 57.24023-16.24z" fill="#2b7cd4"/><path d="m417.0127 142.90118c-5.16016.68-10.60987 1.34-16.16993 1.94l-1.73-15.8-.01025-.1c5.45019-.6 10.78027-1.24 15.83008-1.9l.02.13z" fill="#2b7cd4"/><path d="m487.97266 108.71118v16.01a54.77378 54.77378 0 0 1 -12.16993 5.91c-10.03027 3.66-24.36035 7-42.56 9.92005l-2.51026-15.6c32.26021-5.00006 48.88032-10.60003 57.24019-16.24005z" fill="#2b7cd4"/></svg>