<svg id="Icons" viewBox="0 0 60 60" xmlns="http://www.w3.org/2000/svg"><path d="m5 44v-38a2.006 2.006 0 0 1 2-2h46a2.006 2.006 0 0 1 2 2v38z" fill="#205b75"/><path d="m59 52v3a1 1 0 0 1 -1 1h-56a1 1 0 0 1 -1-1v-3l4-10h50z" fill="#cadbea"/><path d="m59 52v3a1 1 0 0 1 -1 1h-56a1 1 0 0 1 -1-1v-3z" fill="#abbbcc"/><path d="m45.27 8h4.73a1 1 0 0 1 1 1v28a1 1 0 0 1 -1 1h-40a1 1 0 0 1 -1-1v-28a1 1 0 0 1 1-1z" fill="#114559"/><path d="m19 52 1.749-4.371a1 1 0 0 1 .928-.629h16.646a1 1 0 0 1 .928.629l1.749 4.371z" fill="#e1eaf4"/><g fill="#fff"><path d="m15 18a1 1 0 0 0 .707-1.707l-1.293-1.293 1.293-1.293a1 1 0 0 0 -1.414-1.414l-2 2a1 1 0 0 0 0 1.414l2 2a1 1 0 0 0 .707.293z"/><path d="m24.293 17.707a1 1 0 0 0 1.414 0l2-2a1 1 0 0 0 0-1.414l-2-2a1 1 0 0 0 -1.414 1.414l1.293 1.293-1.293 1.293a1 1 0 0 0 0 1.414z"/><path d="m18.553 17.9a1 1 0 0 0 1.342-.448l2-4a1 1 0 1 0 -1.79-.894l-2 4a1 1 0 0 0 .448 1.342z"/></g><path d="m18 21a1 1 0 0 0 -1-1h-3a1 1 0 0 0 0 2h3a1 1 0 0 0 1-1z" fill="#e5bb33"/><path d="m20 21a1 1 0 0 0 1 1h8a1 1 0 0 0 0-2h-8a1 1 0 0 0 -1 1z" fill="#eb6374"/><path d="m25 25a1 1 0 0 0 -1-1h-8a1 1 0 0 0 0 2h8a1 1 0 0 0 1-1z" fill="#e5bb33"/><path d="m16 28a1 1 0 0 0 0 2h5a1 1 0 0 0 0-2z" fill="#e5bb33"/><path d="m41 30h3a1 1 0 0 0 0-2h-3a1 1 0 0 0 0 2z" fill="#82ecff"/><path d="m24 29a1 1 0 0 0 1 1h12a1 1 0 0 0 0-2h-12a1 1 0 0 0 -1 1z" fill="#eb6374"/><path d="m18 32h-2a1 1 0 0 0 0 2h2a1 1 0 0 0 0-2z" fill="#e5bb33"/><path d="m44 32h-11a1 1 0 0 0 0 2h11a1 1 0 0 0 0-2z" fill="#82ecff"/><path d="m29 32h-7a1 1 0 0 0 0 2h7a1 1 0 0 0 0-2z" fill="#eb6374"/></svg>