<svg enable-background="new 0 0 512 512" viewBox="0 0 512 512" xmlns="http://www.w3.org/2000/svg"><g id="global_network"><g id="XMLID_83_"><g id="XMLID_670_"><g id="XMLID_681_"><path id="XMLID_214_" d="m379.75 256h-77.34c0-68.35-20.78-123.75-46.41-123.75 68.35 0 123.75 55.4 123.75 123.75z" fill="#80a8fc"/></g><g id="XMLID_679_"><path id="XMLID_213_" d="m302.41 256h77.34c0 68.35-55.4 123.75-123.75 123.75 25.63 0 46.41-55.4 46.41-123.75z" fill="#80a8fc"/></g><g id="XMLID_677_"><path id="XMLID_212_" d="m209.59 256c0 68.35 20.78 123.75 46.41 123.75-68.35 0-123.75-55.4-123.75-123.75z" fill="#80a8fc"/></g><g id="XMLID_675_"><path id="XMLID_211_" d="m256 132.25c-25.63 0-46.41 55.4-46.41 123.75h-77.34c0-68.35 55.4-123.75 123.75-123.75z" fill="#80a8fc"/></g><g id="XMLID_673_"><path id="XMLID_210_" d="m209.59 256h92.82c0 68.35-20.78 123.75-46.41 123.75s-46.41-55.4-46.41-123.75z" fill="#89bcfc"/></g><g id="XMLID_671_"><path id="XMLID_209_" d="m256 132.25c25.63 0 46.41 55.4 46.41 123.75h-92.82c0-68.35 20.78-123.75 46.41-123.75z" fill="#89bcfc"/></g></g><g id="XMLID_84_"><g id="XMLID_668_"><path id="XMLID_208_" d="m385.754 90.61c-1.671 0-3.355-.521-4.795-1.601-27.878-20.913-60.807-34.562-95.228-39.469-4.374-.624-7.415-4.675-6.791-9.049s4.675-7.414 9.049-6.791c37.078 5.287 72.547 19.986 102.571 42.51 3.534 2.651 4.25 7.666 1.599 11.2-1.571 2.096-3.974 3.2-6.405 3.2z" fill="#e2e6f0"/></g><g id="XMLID_648_"><path id="XMLID_207_" d="m41.63 233.141c-.376 0-.756-.026-1.139-.081-4.374-.624-7.415-4.675-6.791-9.049 5.287-37.078 19.987-72.547 42.511-102.571 2.651-3.535 7.666-4.25 11.2-1.599s4.25 7.666 1.599 11.2c-20.913 27.878-34.562 60.807-39.47 95.229-.569 3.99-3.992 6.871-7.91 6.871z" fill="#e2e6f0"/></g><g id="XMLID_646_"><path id="XMLID_206_" d="m225.149 478.381c-.376 0-.756-.026-1.139-.081-37.078-5.287-72.547-19.986-102.571-42.51-3.534-2.651-4.25-7.666-1.599-11.2 2.651-3.535 7.665-4.249 11.2-1.599 27.878 20.913 60.807 34.561 95.228 39.469 4.374.624 7.415 4.675 6.791 9.049-.569 3.991-3.992 6.872-7.91 6.872z" fill="#e2e6f0"/></g><g id="XMLID_644_"><path id="XMLID_205_" d="m429.384 393.76c-1.671 0-3.355-.522-4.795-1.601-3.534-2.651-4.25-7.666-1.599-11.2 20.913-27.878 34.562-60.807 39.47-95.229.624-4.374 4.68-7.419 9.049-6.791 4.374.624 7.415 4.675 6.791 9.049-5.287 37.078-19.987 72.547-42.511 102.571-1.571 2.097-3.974 3.201-6.405 3.201z" fill="#e2e6f0"/></g><g id="XMLID_642_"><path id="XMLID_204_" d="m470.37 233.141c-3.918 0-7.341-2.88-7.91-6.872-4.908-34.421-18.557-67.351-39.47-95.229-2.651-3.534-1.936-8.549 1.599-11.2 3.534-2.651 8.547-1.937 11.2 1.599 22.523 30.024 37.224 65.493 42.511 102.571.624 4.374-2.417 8.426-6.791 9.049-.383.056-.763.082-1.139.082z" fill="#e2e6f0"/></g><g id="XMLID_638_"><path id="XMLID_203_" d="m286.851 478.381c-3.918 0-7.341-2.88-7.91-6.872-.624-4.374 2.417-8.426 6.791-9.049 34.421-4.908 67.35-18.556 95.228-39.469 3.533-2.651 8.547-1.936 11.2 1.599 2.651 3.534 1.935 8.549-1.599 11.2-30.024 22.524-65.493 37.224-102.571 42.51-.384.054-.763.081-1.139.081z" fill="#e2e6f0"/></g><g id="XMLID_636_"><path id="XMLID_202_" d="m82.616 393.76c-2.432 0-4.833-1.105-6.405-3.2-22.523-30.024-37.224-65.493-42.511-102.571-.624-4.374 2.417-8.426 6.791-9.049 4.377-.626 8.425 2.417 9.049 6.791 4.908 34.421 18.557 67.351 39.47 95.229 2.651 3.534 1.935 8.549-1.599 11.2-1.439 1.079-3.124 1.6-4.795 1.6z" fill="#e2e6f0"/></g><g id="XMLID_634_"><path id="XMLID_201_" d="m126.246 90.61c-2.432 0-4.833-1.104-6.405-3.2-2.651-3.534-1.936-8.549 1.599-11.2 30.024-22.524 65.493-37.224 102.571-42.51 4.37-.626 8.425 2.417 9.049 6.791s-2.417 8.426-6.791 9.049c-34.421 4.908-67.35 18.556-95.228 39.469-1.439 1.08-3.124 1.601-4.795 1.601z" fill="#e2e6f0"/></g><g id="XMLID_631_" fill="#89bcfc"><path id="XMLID_200_" d="m256 78.38c20.376 0 37.438-15.904 38.841-36.208.067-.964.1-1.858.1-2.732 0-21.472-17.469-38.94-38.94-38.94s-38.94 17.468-38.94 38.94c0 .874.032 1.768.1 2.732 1.402 20.304 18.463 36.208 38.839 36.208z"/><path id="XMLID_199_" d="m256 433.62c-20.376 0-37.438 15.904-38.841 36.208-.067.964-.1 1.858-.1 2.732 0 21.472 17.469 38.94 38.94 38.94s38.94-17.468 38.94-38.94c0-.874-.032-1.768-.1-2.732-1.401-20.304-18.463-36.208-38.839-36.208z"/></g><g id="XMLID_628_" fill="#fd7f40"><path id="XMLID_198_" d="m130.398 75.334c-15.183-15.182-39.884-15.181-55.065 0-7.354 7.353-11.402 17.131-11.402 27.532s4.049 20.178 11.4 27.529c.742.743 1.405 1.357 2.082 1.928 7.291 6.32 16.367 9.448 25.43 9.448 10.012-.001 20.008-3.82 27.552-11.371 14.391-14.379 15.23-37.642 1.925-52.99-.566-.67-1.177-1.331-1.922-2.076z"/><path id="XMLID_197_" d="m436.669 381.605c-.742-.743-1.405-1.358-2.082-1.928-15.346-13.302-38.609-12.463-52.981 1.923-14.391 14.379-15.23 37.642-1.925 52.99.565.67 1.177 1.33 1.922 2.076 7.592 7.592 17.561 11.387 27.532 11.386 9.97 0 19.942-3.796 27.532-11.386 7.354-7.353 11.402-17.131 11.402-27.532 0-10.4-4.048-20.177-11.4-27.529z"/></g><g id="XMLID_625_" fill="#ffdd40"><path id="XMLID_196_" d="m42.178 217.16c-.945-.066-1.866-.1-2.737-.1-21.472 0-38.941 17.468-38.941 38.94s17.469 38.94 38.94 38.94c.871 0 1.792-.034 2.732-.099 20.304-1.403 36.208-18.464 36.208-38.841 0-20.374-15.902-37.434-36.202-38.84z"/><path id="XMLID_195_" d="m472.56 217.06c-.871 0-1.792.034-2.732.099-20.304 1.403-36.208 18.464-36.208 38.841 0 20.374 15.902 37.434 36.202 38.84.945.066 1.866.1 2.737.1 21.472 0 38.94-17.468 38.94-38.94s-17.468-38.94-38.939-38.94z"/></g><g id="XMLID_622_" fill="#a0e75d"><path id="XMLID_194_" d="m77.413 379.678c-.677.57-1.34 1.185-2.08 1.925-7.354 7.354-11.402 17.131-11.402 27.532s4.049 20.179 11.402 27.532c7.591 7.591 17.561 11.386 27.531 11.386 9.971 0 19.943-3.796 27.535-11.388.743-.743 1.355-1.404 1.92-2.073 13.306-15.348 12.466-38.611-1.92-52.985-14.378-14.392-37.638-15.232-52.986-1.929z"/><path id="XMLID_193_" d="m436.667 75.334c-15.182-15.182-39.883-15.181-55.066.002-.743.743-1.354 1.404-1.92 2.073-13.306 15.348-12.466 38.611 1.92 52.985 7.549 7.555 17.544 11.375 27.559 11.375 9.06 0 18.138-3.128 25.428-9.447.677-.57 1.34-1.185 2.08-1.925 7.354-7.354 11.402-17.131 11.402-27.532-.001-10.401-4.049-20.178-11.403-27.531z"/></g><path id="XMLID_85_" d="m256 124.25c-72.648 0-131.75 59.103-131.75 131.75s59.102 131.75 131.75 131.75 131.75-59.103 131.75-131.75-59.103-131.75-131.75-131.75zm115.469 123.75h-61.161c-.991-40.099-9.404-80.589-24.553-103.866 46.968 12.504 82.284 53.87 85.714 103.866zm-115.469 123.75c-17.394 0-36.76-45.557-38.308-107.75h76.615c-1.547 62.193-20.913 107.75-38.307 107.75zm-38.308-123.75c1.548-62.193 20.914-107.75 38.308-107.75s36.76 45.557 38.308 107.75zm8.554-103.866c-15.149 23.277-23.562 63.767-24.554 103.866h-61.161c3.43-49.996 38.746-91.362 85.715-103.866zm-85.715 119.866h61.161c.992 40.099 9.404 80.589 24.554 103.866-46.969-12.504-82.285-53.87-85.715-103.866zm145.223 103.866c15.149-23.277 23.562-63.767 24.553-103.866h61.161c-3.429 49.996-38.745 91.362-85.714 103.866z" fill="#6680fb"/></g></g></g><g id="Layer_1"/></svg>