<svg height="512" viewBox="0 0 58 57" width="512" xmlns="http://www.w3.org/2000/svg"><g id="Page-1" fill="none" fill-rule="evenodd"><g id="089---Operating-System" fill-rule="nonzero"><g id="Layer_11" transform="translate(0 6)"><path id="Shape" d="m40 47-11 1-11-1c3-2 3-6 3-6l8-1 8 1s0 4 3 6z" fill="#3f5c6c"/><path id="Shape" d="m43 49c-.0032948 1.1032019-.8967981 1.9967052-2 2h-24c-1.1011688-.0081672-1.9918328-.8988312-2-2 .0032948-1.1032019.8967981-1.9967052 2-2h24c1.1011688.0081672 1.9918328.8988312 2 2z" fill="#547580"/><path id="Shape" d="m58 35v4c-.0032948 1.1032019-.8967981 1.9967052-2 2h-54c-1.10320187-.0032948-1.9967052-.8967981-2-2v-4z" fill="#547580"/><path id="Shape" d="m58 2v34h-58v-34c.0032948-1.10320187.89679813-1.9967052 2-2h54c1.1032019.0032948 1.9967052.89679813 2 2z" fill="#90bae1"/><path id="Shape" d="m56.38.04c-9.39.32-56.38 3.56-56.38 35.96v-34c.0032948-1.10320187.89679813-1.9967052 2-2h54c.127818-.00207853.2554163.01135287.38.04z" fill="#b0d3f0"/></g><g id="Icons" transform="translate(4)"><rect id="Rectangle-path" fill="#955ba5" height="38" rx="2" width="30"/><path id="Shape" d="m33 2c-1.0061427-.00170602-2.0103304.08867088-3 .27v33.46c.9896696.1813291 1.9938573.271706 3 .27 9.3888406-.0000001 16.9999997-7.6111594 16.9999997-17 0-9.38884065-7.6111591-16.99999986-16.9999997-17zm0 19c-1.1045695 0-2-.8954305-2-2s.8954305-2 2-2 2 .8954305 2 2c-.0032948 1.1032019-.8967981 1.9967052-2 2z" fill="#f3d55b"/><path id="Shape" d="m33 13c-1.0546903-.0050382-2.0911709.2748116-3 .81v10.38c.9088291.5351884 1.9453097.8150382 3 .81 3.3137084-.0000001 5.9999999-2.6862916 5.9999999-6s-2.6862915-5.9999999-5.9999999-6zm0 8c-1.1045695 0-2-.8954305-2-2s.8954305-2 2-2 2 .8954305 2 2c-.0032948 1.1032019-.8967981 1.9967052-2 2z" fill="#f9eab0"/><g fill="#fff"><path id="Shape" d="m10 26c-2.8 0-5-3.075-5-7s2.2-7 5-7 5 3.075 5 7-2.2 7-5 7zm0-12c-1.626 0-3 2.29-3 5s1.374 5 3 5 3-2.29 3-5-1.374-5-3-5z"/><path id="Shape" d="m21 26c-2.209139 0-4-1.790861-4-4 0-.5522847.4477153-1 1-1s1 .4477153 1 1c0 1.1045695.8954305 2 2 2s2-.8954305 2-2-.8954305-2-2-2c-2.209139 0-4-1.790861-4-4s1.790861-4 4-4 4 1.790861 4 4c0 .5522847-.4477153 1-1 1s-1-.4477153-1-1c0-1.1045695-.8954305-2-2-2s-2 .8954305-2 2 .8954305 2 2 2c2.209139 0 4 1.790861 4 4s-1.790861 4-4 4z"/></g></g></g></g></svg>