<?xml version="1.0" encoding="iso-8859-1"?>
<!-- Generator: Adobe Illustrator 19.0.0, SVG Export Plug-In . SVG Version: 6.00 Build 0)  -->
<svg version="1.1" id="Capa_1" xmlns="http://www.w3.org/2000/svg" xmlns:xlink="http://www.w3.org/1999/xlink" x="0px" y="0px"
	 viewBox="0 0 512 512" style="enable-background:new 0 0 512 512;" xml:space="preserve">
<path style="fill:#70B5E8;" d="M340.462,7.3c-2.207-2.207-4.834-3.993-7.752-5.227c-5.977-2.529-3.896-1.917-62.77-1.917
	C2.621,0.157,22.194-0.815,15.366,2.074c-4.692,1.984-8.681,5.414-11.364,9.825c-3.747,6.167-3.389,11.664-3.531,12.646
	c0,365.599-1.178,337.178,4.165,345.094c4.379,6.484,11.801,10.753,20.223,10.753c289.522,0,6.636,0,298.358,0
	c8.692,0,16.496-4.57,20.857-11.742c3.747-6.167,3.389-11.664,3.531-12.646c0-2.263,0-51.703,0-49.44c0-96.742,0-183.969,0-282.018
	C347.605,19.775,344.881,11.72,340.462,7.3z"/>
<path style="fill:#52A5D8;" d="M35.005,369.421c-3.747-6.167-3.389-11.664-3.531-12.646c0-71.059,0-266.152,0-331.459
	c0-10.977,7.274-20.397,17.519-23.4V0.157c-25.005,0-27.55-0.654-33.627,1.917c-4.639,1.962-8.651,5.365-11.364,9.825
	c-3.747,6.167-3.389,11.664-3.531,12.646c0,365.599-1.178,337.178,4.165,345.094c4.379,6.484,11.801,10.753,20.223,10.753
	c8.665,0,16.318,0,24.896,0c-4.281-1.104-8.106-3.34-11.138-6.372C37.231,372.634,36.026,371.099,35.005,369.421z"/>
<path style="fill:#EFEFEF;" d="M347.605,253.092c-4.26,0-7.714-3.454-7.714-7.714v-99.772c0-4.26,3.454-7.714,7.714-7.714
	s7.714,3.454,7.714,7.714v99.772C355.319,249.638,351.866,253.092,347.605,253.092z"/>
<path style="fill:#666666;" d="M347.605,66.078c0-42.422,2.134-49.501-7.143-58.777c-4.413-4.413-10.509-7.142-17.242-7.143H24.857
	c-8.711,0-16.502,4.585-20.855,11.741c-3.747,6.167-3.389,11.664-3.531,12.646v41.533H347.605z"/>
<path style="fill:#535454;" d="M31.671,24.545c0-13.573,11.035-24.387,24.385-24.388h-31.2C11.367,0.159,0.471,11.098,0.471,24.545
	c0,25.694,0,15.83,0,41.533h31.2C31.671,40.372,31.671,50.247,31.671,24.545z"/>
<path style="fill:#EFEFEF;" d="M443.968,490.046H251.241c-10.456,0-18.963-8.507-18.963-18.963V278.454
	c0-4.261,3.454-7.714,7.714-7.714h215.225c4.26,0,7.714,3.453,7.714,7.714v192.627C462.931,481.538,454.424,490.046,443.968,490.046
	z M247.707,286.168v184.913c0,1.917,1.619,3.535,3.535,3.535h192.727c1.916,0,3.535-1.618,3.535-3.535V286.168H247.707z"/>
<path style="fill:#F94A46;" d="M28.016,33.115c0-9.025,13.33-10.827,15.274-1.502c0.826,3.962-1.679,8.158-6.058,9.072
	C32.286,41.611,28.016,37.858,28.016,33.115z"/>
<path style="fill:#FFB70D;" d="M53.998,34.627c-0.8-3.934,1.625-8.147,6.058-9.072c9.929-1.965,13.011,13.045,3.014,15.13
	C58.641,41.497,54.84,38.664,53.998,34.627z"/>
<path style="fill:#92B620;" d="M81.934,38.577c-4.368-4.499-2.058-11.769,3.95-13.022c2.51-0.504,5.174,0.319,6.963,2.108
	c0.35,0.35,0.679,0.751,0.957,1.173s0.514,0.864,0.71,1.327c0.195,0.473,0.339,0.957,0.442,1.45
	c0.103,0.493,0.154,0.997,0.154,1.502c0,0.504-0.051,1.008-0.154,1.512c-0.103,0.494-0.247,0.977-0.442,1.44
	c-0.195,0.463-0.432,0.916-0.71,1.337c-0.278,0.422-0.597,0.813-0.957,1.173C89.958,41.445,85.164,41.713,81.934,38.577z"/>
<g>
	<path style="fill:#7E7F7F;" d="M248.019,40.832H119.121c-4.26,0-7.714-3.454-7.714-7.714s3.454-7.714,7.714-7.714h128.898
		c4.26,0,7.714,3.454,7.714,7.714S252.279,40.832,248.019,40.832z"/>
	<path style="fill:#7E7F7F;" d="M296.079,40.832h-17.727c-4.26,0-7.714-3.454-7.714-7.714s3.454-7.714,7.714-7.714h17.727
		c4.26,0,7.714,3.454,7.714,7.714S300.339,40.832,296.079,40.832z"/>
</g>
<path style="fill:#52A5D8;" d="M392.778,98.518h-90.346c-6.187,0-11.249,5.062-11.249,11.249v36.842
	c0,6.187,5.062,11.249,11.249,11.249h90.346c6.187,0,11.249-5.062,11.249-11.249v-36.842
	C404.027,103.58,398.965,98.518,392.778,98.518z"/>
<path style="fill:#84C7EF;" d="M374.079,135.902h-27.654c-4.26,0-7.714-3.454-7.714-7.714s3.454-7.714,7.714-7.714h27.654
	c4.26,0,7.714,3.454,7.714,7.714S378.34,135.902,374.079,135.902z"/>
<path style="fill:#52A5D8;" d="M500.39,350.722h-90.346c-6.187,0-11.249,5.062-11.249,11.249v36.842
	c0,6.187,5.062,11.249,11.249,11.249h90.346c6.187,0,11.249-5.062,11.249-11.249v-36.842
	C511.639,355.784,506.577,350.722,500.39,350.722z"/>
<path style="fill:#84C7EF;" d="M481.692,388.107h-27.653c-4.26,0-7.714-3.453-7.714-7.714s3.454-7.714,7.714-7.714h27.653
	c4.26,0,7.714,3.453,7.714,7.714C489.406,384.654,485.952,388.107,481.692,388.107z"/>
<path style="fill:#92B620;" d="M392.778,452.66h-90.346c-6.187,0-11.249,5.062-11.249,11.249v36.842
	c0,6.187,5.062,11.249,11.249,11.249h90.346c6.187,0,11.249-5.062,11.249-11.249v-36.842
	C404.027,457.722,398.965,452.66,392.778,452.66z"/>
<path style="fill:#B9D835;" d="M374.079,490.046h-27.653c-4.26,0-7.714-3.453-7.714-7.714s3.454-7.714,7.714-7.714h27.653
	c4.26,0,7.714,3.453,7.714,7.714S378.34,490.046,374.079,490.046z"/>
<path style="fill:#52A5D8;" d="M285.165,350.722h-90.346c-6.187,0-11.249,5.062-11.249,11.249v36.842
	c0,6.187,5.062,11.249,11.249,11.249h90.346c6.187,0,11.249-5.062,11.249-11.249v-36.842
	C296.414,355.784,291.352,350.722,285.165,350.722z"/>
<g>
	<path style="fill:#3094C6;" d="M322.04,146.609v-36.842c0-6.187,5.062-11.249,11.249-11.249h-30.857
		c-6.187,0-11.249,5.062-11.249,11.249v36.842c0,6.187,5.062,11.249,11.249,11.249h30.857
		C327.102,157.858,322.04,152.796,322.04,146.609z"/>
	<path style="fill:#3094C6;" d="M429.653,398.813v-36.842c0-6.187,5.062-11.249,11.249-11.249h-30.857
		c-6.187,0-11.249,5.062-11.249,11.249v36.842c0,6.187,5.062,11.249,11.249,11.249h30.857
		C434.715,410.063,429.653,405,429.653,398.813z"/>
</g>
<path style="fill:#89A511;" d="M322.04,500.751v-36.842c0-6.187,5.062-11.249,11.249-11.249h-30.857
	c-6.187,0-11.249,5.062-11.249,11.249v36.842c0,6.187,5.062,11.249,11.249,11.249h30.857C327.102,512,322.04,506.938,322.04,500.751
	z"/>
<path style="fill:#3094C6;" d="M214.428,398.813v-36.842c0-6.187,5.062-11.249,11.249-11.249H194.82
	c-6.187,0-11.249,5.062-11.249,11.249v36.842c0,6.187,5.062,11.249,11.249,11.249h30.857
	C219.49,410.063,214.428,405,214.428,398.813z"/>
<path style="fill:#84C7EF;" d="M266.467,388.107h-27.654c-4.26,0-7.714-3.453-7.714-7.714s3.454-7.714,7.714-7.714h27.654
	c4.26,0,7.714,3.453,7.714,7.714C274.181,384.654,270.727,388.107,266.467,388.107z"/>
<path style="fill:#FFB70D;" d="M55.735,130.245H42.251c-4.26,0-7.714-3.454-7.714-7.714c0-4.26,3.454-7.714,7.714-7.714h13.484
	c4.26,0,7.714,3.454,7.714,7.714C63.449,126.791,59.996,130.245,55.735,130.245z"/>
<path style="fill:#F9F9F9;" d="M55.735,167.274H42.251c-4.26,0-7.714-3.454-7.714-7.714s3.454-7.714,7.714-7.714h13.484
	c4.26,0,7.714,3.454,7.714,7.714S59.996,167.274,55.735,167.274z"/>
<path style="fill:#A4D9F4;" d="M55.735,204.302H42.251c-4.26,0-7.714-3.454-7.714-7.714s3.454-7.714,7.714-7.714h13.484
	c4.26,0,7.714,3.454,7.714,7.714S59.996,204.302,55.735,204.302z"/>
<path style="fill:#FFB70D;" d="M344.162,231.497l-87.227,39.32c-6.579,2.966-6.579,12.308,0,15.274l87.227,39.32
	c2.189,0.987,4.696,0.987,6.885,0l87.228-39.32c6.579-2.966,6.579-12.308,0-15.274l-87.228-39.32
	C348.858,230.51,346.351,230.51,344.162,231.497z"/>
<path style="fill:#F4A403;" d="M289.803,268.061c-4.016-1.81-6.091-5.481-6.27-9.234l-26.598,11.99
	c-6.579,2.966-6.579,12.308,0,15.274l87.228,39.32c2.189,0.987,4.696,0.987,6.885,0l32.99-14.871L289.803,268.061z"/>
<path style="fill:#84C7EF;" d="M220.396,130.247h-64.602c-4.26,0-7.714-3.454-7.714-7.714c0-4.26,3.454-7.714,7.714-7.714h64.602
	c4.26,0,7.714,3.454,7.714,7.714C228.11,126.793,224.656,130.247,220.396,130.247z"/>
<path style="fill:#F9F9F9;" d="M127.087,129.734H90.578c-4.26,0-7.714-3.454-7.714-7.714s3.454-7.714,7.714-7.714h36.509
	c4.26,0,7.714,3.454,7.714,7.714S131.348,129.734,127.087,129.734z"/>
<path style="fill:#A4D9F4;" d="M256.123,203.79H119.296c-4.26,0-7.714-3.454-7.714-7.714s3.454-7.714,7.714-7.714h136.827
	c4.26,0,7.714,3.454,7.714,7.714S260.384,203.79,256.123,203.79z"/>
<path style="fill:#FFB70D;" d="M220.396,166.759h-18.024c-4.26,0-7.714-3.454-7.714-7.714c0-4.26,3.454-7.714,7.714-7.714h18.024
	c4.26,0,7.714,3.454,7.714,7.714C228.11,163.305,224.656,166.759,220.396,166.759z"/>
<path style="fill:#A4D9F4;" d="M173.009,166.762H90.578c-4.26,0-7.714-3.454-7.714-7.714c0-4.26,3.454-7.714,7.714-7.714h82.431
	c4.26,0,7.714,3.454,7.714,7.714C180.724,163.309,177.27,166.762,173.009,166.762z"/>
<g>
	<path style="fill:#FFB70D;" d="M256.123,129.731h-9.806c-4.26,0-7.714-3.454-7.714-7.714c0-4.26,3.454-7.714,7.714-7.714h9.806
		c4.26,0,7.714,3.454,7.714,7.714C263.838,126.277,260.384,129.731,256.123,129.731z"/>
	<path style="fill:#FFB70D;" d="M55.735,315.388H42.251c-4.26,0-7.714-3.453-7.714-7.714s3.454-7.714,7.714-7.714h13.484
		c4.26,0,7.714,3.453,7.714,7.714S59.996,315.388,55.735,315.388z"/>
</g>
<path style="fill:#F9F9F9;" d="M55.735,278.36H42.251c-4.26,0-7.714-3.453-7.714-7.714s3.454-7.714,7.714-7.714h13.484
	c4.26,0,7.714,3.453,7.714,7.714S59.996,278.36,55.735,278.36z"/>
<path style="fill:#A4D9F4;" d="M55.735,241.331H42.251c-4.26,0-7.714-3.454-7.714-7.714s3.454-7.714,7.714-7.714h13.484
	c4.26,0,7.714,3.454,7.714,7.714S59.996,241.331,55.735,241.331z"/>
<path style="fill:#FFB70D;" d="M209.173,315.902h-9.806c-4.26,0-7.714-3.453-7.714-7.714s3.454-7.714,7.714-7.714h9.806
	c4.26,0,7.714,3.453,7.714,7.714C216.887,312.449,213.433,315.902,209.173,315.902z"/>
<path style="fill:#84C7EF;" d="M169.331,315.902H129.93c-4.26,0-7.714-3.453-7.714-7.714s3.454-7.714,7.714-7.714h39.401
	c4.26,0,7.714,3.453,7.714,7.714S173.591,315.902,169.331,315.902z"/>
<path style="fill:#F9F9F9;" d="M105.31,315.902H90.578c-4.26,0-7.714-3.453-7.714-7.714s3.454-7.714,7.714-7.714h14.731
	c4.26,0,7.714,3.453,7.714,7.714C113.024,312.449,109.57,315.902,105.31,315.902z"/>
<path style="fill:#FFB70D;" d="M209.173,278.874h-89.876c-4.26,0-7.714-3.453-7.714-7.714s3.454-7.714,7.714-7.714h89.876
	c4.26,0,7.714,3.453,7.714,7.714S213.433,278.874,209.173,278.874z"/>
<path style="fill:#84C7EF;" d="M230.858,241.849h-74.122c-4.26,0-7.714-3.454-7.714-7.714c0-4.26,3.454-7.714,7.714-7.714h74.122
	c4.26,0,7.714,3.454,7.714,7.714S235.119,241.849,230.858,241.849z"/>
<path style="fill:#A4D9F4;" d="M127.088,241.845h-36.51c-4.26,0-7.714-3.454-7.714-7.714s3.454-7.714,7.714-7.714h36.509
	c4.26,0,7.714,3.454,7.714,7.714S131.348,241.845,127.088,241.845z"/>
<path style="fill:#F9F9F9;" d="M256.123,166.76h-6.741c-4.26,0-7.714-3.454-7.714-7.714s3.454-7.714,7.714-7.714h6.741
	c4.26,0,7.714,3.454,7.714,7.714S260.384,166.76,256.123,166.76z"/>
<path style="fill:#84C7EF;" d="M90.574,278.872c-0.494,0-1.008-0.052-1.502-0.145c-0.494-0.102-0.977-0.257-1.44-0.442
	c-0.473-0.196-0.916-0.432-1.337-0.71c-0.422-0.287-0.813-0.607-1.173-0.966c-0.36-0.35-0.679-0.74-0.957-1.173
	c-0.278-0.411-0.514-0.864-0.71-1.326c-0.195-0.463-0.34-0.947-0.442-1.44c-0.103-0.504-0.155-1.009-0.155-1.512
	c0-0.504,0.052-1.009,0.155-1.502c0.102-0.494,0.247-0.977,0.442-1.451c0.195-0.463,0.432-0.916,0.71-1.327
	c0.278-0.422,0.597-0.823,0.957-1.173c0.36-0.36,0.751-0.678,1.173-0.956c0.421-0.277,0.864-0.524,1.337-0.709
	c0.463-0.196,0.946-0.351,1.44-0.443c0.998-0.206,2.016-0.206,3.014,0c0.494,0.092,0.977,0.247,1.44,0.443
	c0.473,0.185,0.916,0.432,1.337,0.709c0.421,0.278,0.812,0.597,1.172,0.956c0.35,0.351,0.679,0.751,0.957,1.173
	c0.278,0.411,0.514,0.864,0.71,1.327c0.195,0.473,0.339,0.956,0.442,1.451c0.102,0.493,0.154,0.997,0.154,1.502
	c0,2.036-0.833,4.021-2.263,5.451c-0.36,0.36-0.751,0.679-1.172,0.966c-0.422,0.278-0.864,0.514-1.337,0.71
	c-0.463,0.185-0.946,0.34-1.44,0.442C91.592,278.82,91.078,278.872,90.574,278.872z"/>
<path style="fill:#F9F9F9;" d="M254.621,241.689c-0.924-0.173-1.928-0.568-2.777-1.142c-0.826-0.566-1.527-1.226-2.129-2.14
	c-0.597-0.884-0.987-1.905-1.152-2.767c-0.533-2.61,0.365-5.232,2.109-6.963c0.654-0.674,1.537-1.281,2.499-1.667
	c1.356-0.572,2.928-0.759,4.464-0.442c0.865,0.162,1.933,0.579,2.767,1.142c2.292,1.565,3.435,4.007,3.435,6.418
	c0,0.504-0.051,1.008-0.154,1.512c-0.093,0.483-0.247,0.977-0.432,1.44c-0.196,0.463-0.433,0.916-0.71,1.327
	c-0.593,0.869-1.239,1.524-2.139,2.14c-0.847,0.571-1.862,0.972-2.767,1.142C257.131,241.792,255.571,241.887,254.621,241.689z"/>
<g>
	<path style="fill:#FFFFFF;" d="M315.677,487.785c-5.953-5.951,0.719-15.833,8.403-12.579c7.024,2.957,6.007,13.142-1.44,14.687
		C322.137,489.996,317.515,489.623,315.677,487.785z"/>
	<path style="fill:#FFFFFF;" d="M421.62,377.44c2.684-6.363,11.586-6.302,14.246,0c1.866,4.414-0.854,9.62-5.616,10.512
		C424.226,389.202,419.242,383.063,421.62,377.44z"/>
	<path style="fill:#FFFFFF;" d="M314.011,125.234c1.534-3.835,6.106-5.84,10.07-4.166c6.809,2.725,6.236,13.088-1.44,14.688
		C316.46,136.891,311.68,130.876,314.011,125.234z"/>
</g>
<path style="fill:#F9F9F9;" d="M212.02,387.896c-0.924-0.173-1.928-0.568-2.777-1.142c-0.826-0.566-1.528-1.226-2.129-2.14
	c-0.597-0.884-0.987-1.905-1.152-2.767c-0.533-2.61,0.365-5.233,2.109-6.963c0.654-0.674,1.537-1.281,2.499-1.666
	c1.356-0.572,2.928-0.759,4.464-0.442c0.865,0.162,1.933,0.579,2.767,1.142c2.292,1.565,3.435,4.007,3.435,6.418
	c0,0.504-0.051,1.008-0.154,1.512c-0.093,0.483-0.247,0.977-0.432,1.44c-0.196,0.463-0.433,0.916-0.71,1.327
	c-0.593,0.869-1.239,1.524-2.139,2.14c-0.847,0.571-1.862,0.972-2.767,1.142C214.53,387.999,212.97,388.094,212.02,387.896z"/>
<path style="fill:#FFB70D;" d="M89.075,203.585c-0.924-0.173-1.928-0.568-2.777-1.142c-0.826-0.566-1.528-1.226-2.129-2.14
	c-0.597-0.884-0.987-1.905-1.152-2.767c-0.533-2.61,0.365-5.232,2.109-6.963c0.654-0.674,1.537-1.281,2.499-1.666
	c1.356-0.572,2.928-0.759,4.464-0.442c0.865,0.162,1.933,0.579,2.767,1.142c2.292,1.565,3.435,4.007,3.435,6.418
	c0,0.504-0.051,1.008-0.154,1.512c-0.093,0.483-0.247,0.977-0.432,1.44c-0.196,0.463-0.433,0.916-0.71,1.327
	c-0.593,0.869-1.239,1.524-2.139,2.14c-0.847,0.571-1.862,0.972-2.767,1.142C91.585,203.688,90.025,203.783,89.075,203.585z"/>
<g>
</g>
<g>
</g>
<g>
</g>
<g>
</g>
<g>
</g>
<g>
</g>
<g>
</g>
<g>
</g>
<g>
</g>
<g>
</g>
<g>
</g>
<g>
</g>
<g>
</g>
<g>
</g>
<g>
</g>
</svg>
