<svg id="Layer_1" enable-background="new 0 0 64 64" viewBox="0 0 64 64" xmlns="http://www.w3.org/2000/svg"><g><g><path d="m19.85 35.55v13.9c0 2.45 1.98 4.43 4.43 4.43h24.55c.62 0 1.21.27 1.62.74l4.39 5.05v-4.53c0-.7.57-1.26 1.26-1.26h1.25c2.44 0 4.42-1.98 4.42-4.42v-13.91c0-2.44-1.98-4.42-4.42-4.42h-33.07c-2.45 0-4.43 1.98-4.43 4.42z" fill="#ff5a76"/></g><g><path d="m44.15 8.75v13.91c0 2.44-1.98 4.42-4.42 4.42h-24.56c-.62 0-1.21.27-1.62.74l-4.39 5.05v-4.53c0-.7-.57-1.26-1.26-1.26h-1.25c-2.44 0-4.42-1.98-4.42-4.42v-13.91c0-2.44 1.98-4.42 4.42-4.42h33.08c2.44-.01 4.42 1.98 4.42 4.42z" fill="#ffeba8"/></g><g><path d="m18.01 20.85h-11.35v-1.36c0-2.5 2.02-4.52 4.52-4.52h2.31c2.5 0 4.52 2.02 4.52 4.52z" fill="#50d2ff"/></g><g><path d="m15.45 11.86c0-1.72-1.39-3.11-3.11-3.11s-3.11 1.39-3.11 3.11 1.39 3.11 3.11 3.11c1.71 0 3.11-1.39 3.11-3.11z" fill="#50d2ff"/></g><g><path d="m36.83 48.09h-11.35v-1.36c0-2.5 2.02-4.52 4.52-4.52h2.31c2.5 0 4.52 2.02 4.52 4.52z" fill="#50d2ff"/></g><g><path d="m34.26 39.1c0-1.72-1.39-3.11-3.11-3.11s-3.11 1.39-3.11 3.11 1.39 3.11 3.11 3.11 3.11-1.39 3.11-3.11z" fill="#50d2ff"/></g><g><path d="m18.01 21.85h-11.35c-.55 0-1-.45-1-1v-1.36c0-3.04 2.48-5.52 5.52-5.52h2.31c3.04 0 5.52 2.48 5.52 5.52v1.36c0 .55-.45 1-1 1zm-10.35-2h9.35v-.36c0-1.94-1.58-3.52-3.52-3.52h-2.31c-1.94 0-3.52 1.58-3.52 3.52z"/></g><g><path d="m12.34 15.97c-2.27 0-4.11-1.84-4.11-4.11s1.84-4.11 4.11-4.11 4.11 1.84 4.11 4.11c0 2.26-1.85 4.11-4.11 4.11zm0-6.22c-1.16 0-2.11.95-2.11 2.11s.95 2.11 2.11 2.11 2.11-.95 2.11-2.11-.95-2.11-2.11-2.11z"/></g><g><path d="m54.84 60.68c-.28 0-.56-.12-.75-.34l-4.39-5.05c-.22-.25-.53-.39-.86-.39h-24.55c-3 0-5.43-2.44-5.43-5.43v-13.9c0-2.99 2.43-5.42 5.42-5.42h33.08c2.99 0 5.42 2.43 5.42 5.42v13.91c0 2.99-2.43 5.42-5.42 5.42h-1.26c-.15 0-.26.12-.26.26v4.53c0 .42-.26.79-.65.94-.12.03-.23.05-.35.05zm-30.56-28.55c-1.89 0-3.42 1.54-3.42 3.42v13.9c0 1.89 1.54 3.43 3.43 3.43h24.55c.91 0 1.78.39 2.37 1.08l2.63 3.04v-1.85c0-1.25 1.02-2.26 2.26-2.26h1.25c1.89 0 3.42-1.54 3.42-3.42v-13.92c0-1.89-1.54-3.42-3.42-3.42z"/></g><g><path d="m9.16 33.87c-.12 0-.24-.02-.35-.06-.39-.15-.65-.52-.65-.94v-4.53c0-.15-.12-.26-.26-.26h-1.25c-2.99 0-5.42-2.43-5.42-5.42v-13.91c0-2.99 2.43-5.42 5.42-5.42h33.08c2.99 0 5.42 2.43 5.42 5.42v13.91c0 2.99-2.43 5.42-5.42 5.42h-24.56c-.33 0-.65.14-.86.39l-4.39 5.05c-.2.23-.47.35-.76.35zm-2.51-28.55c-1.89 0-3.42 1.54-3.42 3.42v13.91c0 1.89 1.54 3.42 3.42 3.42h1.25c1.25 0 2.26 1.02 2.26 2.26v1.85l2.63-3.03c.6-.69 1.46-1.08 2.37-1.08h24.56c1.89 0 3.42-1.54 3.42-3.42v-13.9c0-1.89-1.54-3.42-3.42-3.42h-33.07z"/></g><g><path d="m23.18 17.14c-.55 0-.99-.44-1-.99s.44-1 .99-1.01l6.67-.07h.01c.55 0 .99.44 1 .99s-.44 1-.99 1.01l-6.67.07s0 0-.01 0z"/></g><g><path d="m23.23 21.85c-.55 0-.99-.44-1-.99s.44-1 .99-1.01l14.46-.15h.01c.55 0 .99.44 1 .99s-.44 1-.99 1.01l-14.46.15c-.01 0-.01 0-.01 0z"/></g><g><path d="m35.05 12.83h-11.87c-.55 0-1-.45-1-1s.45-1 1-1h11.87c.55 0 1 .45 1 1s-.45 1-1 1z"/></g><g><path d="m36.83 49.09h-11.35c-.55 0-1-.45-1-1v-1.36c0-3.04 2.48-5.52 5.52-5.52h2.31c3.04 0 5.52 2.48 5.52 5.52v1.36c0 .55-.45 1-1 1zm-10.35-2h9.35v-.36c0-1.94-1.58-3.52-3.52-3.52h-2.31c-1.94 0-3.52 1.58-3.52 3.52z"/></g><g><path d="m31.16 43.21c-2.27 0-4.11-1.84-4.11-4.11s1.84-4.11 4.11-4.11 4.11 1.84 4.11 4.11c-.01 2.27-1.85 4.11-4.11 4.11zm0-6.22c-1.16 0-2.11.95-2.11 2.11s.95 2.11 2.11 2.11 2.11-.95 2.11-2.11c-.01-1.16-.95-2.11-2.11-2.11z"/></g><g><path d="m42 44.38c-.55 0-.99-.44-1-.99s.44-1 .99-1.01l6.67-.07h.01c.55 0 .99.44 1 .99s-.44 1-.99 1.01l-6.67.07s0 0-.01 0z"/></g><g><path d="m42.05 49.09c-.55 0-.99-.44-1-.99s.44-1 .99-1.01l14.46-.15h.01c.55 0 .99.44 1 .99s-.44 1-.99 1.01l-14.46.15c-.01 0-.01 0-.01 0z"/></g><g><path d="m53.87 40.07h-11.87c-.55 0-1-.45-1-1s.45-1 1-1h11.87c.55 0 1 .45 1 1 0 .56-.45 1-1 1z"/></g></g></svg>