<svg id="Layer_1" enable-background="new 0 0 53 53" height="512" viewBox="0 0 53 53" width="512" xmlns="http://www.w3.org/2000/svg"><g id="_x37_0"><g><path d="m42.099 9.73h1.87v33.54h-1.87z" fill="#384c54"/></g><g><path d="m9.73 25.565h33.54v1.87h-33.54z" fill="#384c54"/></g><g><path d="m9.031 9.73h1.87v33.54h-1.87z" fill="#384c54"/></g><g><g><g><path d="m15.0094051 33.4846497c0 2.6306 5.149437 4.7571983 11.4856567 4.7571983 6.3460979 0 11.4955311-2.1265984 11.4955311-4.7571983v-5.7117462h-22.9811878z" fill="#5bb774"/></g><g><g><path d="m24.3698158 35.1804848c0 .507122-.4057217.9128456-.9128437.9128456-.5071201 0-.9128418-.4057236-.9128418-.9128456s.4057217-.9127808.9128418-.9127808c.5071221 0 .9128437.4056587.9128437.9127808z" fill="#d9defb"/></g><g><path d="m27.4128437 35.4855804c0 .5071182-.4057217.9128418-.9128437.9128418s-.9128437-.4057236-.9128437-.9128418c0-.507122.4057217-.9127808.9128437-.9127808s.9128437.4056588.9128437.9127808z" fill="#d9defb"/></g><g><path d="m28.6301842 35.1804848c0 .507122.4057217.9128456.9128437.9128456.5071201 0 .9128418-.4057236.9128418-.9128456s-.4057217-.9127808-.9128418-.9127808c-.5071221 0-.9128437.4056587-.9128437.9127808z" fill="#d9defb"/></g></g><g><path d="m37.990593 27.7729034c0 2.6305962-5.1494331 4.7571945-11.4955311 4.7571945-6.3362198 0-11.4856567-2.1265984-11.4856567-4.7571945 0-2.6305351 5.149437-4.7571335 11.4856567-4.7571335 6.3460979.0000001 11.4955311 2.1265984 11.4955311 4.7571335z" fill="#455a64"/></g><g><path d="m36.4825134 27.7729111c0 1.986515-4.4735985 3.592432-9.986805 3.592432-5.5046215 0-9.97822-1.605917-9.97822-3.592432 0-1.9864693 4.4735985-3.5923862 9.97822-3.5923862 5.5132065-.0000001 9.986805 1.6059169 9.986805 3.5923862z" fill="#ffd54f"/></g></g><g><g><path d="m15.0094051 25.2270355c0 2.6305962 5.149437 4.7571945 11.4856567 4.7571945 6.3460979 0 11.4955311-2.1265984 11.4955311-4.7571945v-5.7117481h-22.9811878z" fill="#5bb774"/></g><g><g><path d="m24.3698158 26.4609718c0 .507122-.4057217.9128437-.9128437.9128437-.5071201 0-.9128418-.4057217-.9128418-.9128437s.4057217-.9127808.9128418-.9127808c.5071221.0000001.9128437.4056588.9128437.9127808z" fill="#d9defb"/></g><g><path d="m27.4128437 26.7660656c0 .5071201-.4057217.9128437-.9128437.9128437s-.9128437-.4057236-.9128437-.9128437c0-.507122.4057217-.9127808.9128437-.9127808s.9128437.4056588.9128437.9127808z" fill="#d9defb"/></g><g><path d="m28.6301842 26.4609718c0 .507122.4057217.9128437.9128437.9128437.5071201 0 .9128418-.4057217.9128418-.9128437s-.4057217-.9127808-.9128418-.9127808c-.5071221.0000001-.9128437.4056588-.9128437.9127808z" fill="#d9defb"/></g></g><g><path d="m37.990593 19.5152874c0 2.6305962-5.1494331 4.7571945-11.4955311 4.7571945-6.3362198 0-11.4856567-2.1265984-11.4856567-4.7571945 0-2.6305351 5.149437-4.7571335 11.4856567-4.7571335 6.3460979 0 11.4955311 2.1265984 11.4955311 4.7571335z" fill="#455a64"/></g><g><path d="m36.4825134 19.515295c0 1.986515-4.4735985 3.592432-9.986805 3.592432-5.5046215 0-9.97822-1.605917-9.97822-3.592432 0-1.9864693 4.4735985-3.5923862 9.97822-3.5923862 5.5132065 0 9.986805 1.605917 9.986805 3.5923862z" fill="#ffd54f"/></g></g></g><g><g><path d="m17.4315968 3.2028844v9.5835619c0 .3878355-.3144016.7022381-.7022381.7022381h-13.5271116c-.3878355 0-.7022383-.3144026-.7022383-.7022381v-9.5835619c0-.3878355.3144028-.7022381.7022383-.7022381h13.5271111c.3878369.0000001.7022386.3144026.7022386.7022381z" fill="#f45558"/></g><g><path d="m3.711 3.712h12.51v7.557h-12.51z" fill="#d9defb"/></g></g><g><g><path d="m50.4999924 3.2028844v9.5835619c0 .3878355-.3144035.7022381-.70224.7022381h-13.5271111c-.3878365 0-.70224-.3144026-.70224-.7022381v-9.5835619c0-.3878355.3144035-.7022381.70224-.7022381h13.5271111c.3878364.0000001.70224.3144026.70224.7022381z" fill="#2196f3"/></g><g><path d="m36.78 3.712h12.51v7.557h-12.51z" fill="#d9defb"/></g></g><g><g><path d="m17.4315968 40.2135544v9.5835609c0 .3878365-.3144016.70224-.7022381.70224h-13.5271116c-.3878355 0-.7022383-.3144035-.7022383-.70224v-9.5835609c0-.3878365.3144028-.70224.7022383-.70224h13.5271111c.3878369 0 .7022386.3144035.7022386.70224z" fill="#455a64"/></g><g><path d="m3.711 40.722h12.51v7.557h-12.51z" fill="#d9defb"/></g></g><g><g><path d="m50.4999924 40.2135544v9.5835609c0 .3878365-.3144035.70224-.70224.70224h-13.5271111c-.3878365 0-.70224-.3144035-.70224-.70224v-9.5835609c0-.3878365.3144035-.70224.70224-.70224h13.5271111c.3878364 0 .70224.3144035.70224.70224z" fill="#a96c79"/></g><g><path d="m36.78 40.722h12.51v7.557h-12.51z" fill="#d9defb"/></g></g></g></svg>