<?xml version="1.0" encoding="iso-8859-1"?>
<!-- Generator: Adobe Illustrator 19.0.0, SVG Export Plug-In . SVG Version: 6.00 Build 0)  -->
<svg version="1.1" id="Layer_1" xmlns="http://www.w3.org/2000/svg" xmlns:xlink="http://www.w3.org/1999/xlink" x="0px" y="0px"
	 viewBox="0 0 512 512" style="enable-background:new 0 0 512 512;" xml:space="preserve">
<circle style="fill:#FFDC64;" cx="256" cy="256" r="256"/>
<path style="fill:#FFC850;" d="M308.148,459.852c-141.384,0-256-114.616-256-256c0-57.393,18.889-110.372,50.785-153.067
	C40.452,97.465,0,172.007,0,256c0,141.384,114.616,256,256,256c83.993,0,158.535-40.452,205.215-102.933
	C418.52,440.964,365.541,459.852,308.148,459.852z"/>
<g>
	<path style="fill:#FFF082;" d="M293.972,79.468c-1.185,0-2.398-0.116-3.611-0.347c-11.24-2.171-22.796-3.269-34.361-3.269
		c-10.472,0-18.963-8.491-18.963-18.963S245.528,37.926,256,37.926c13.963,0,27.944,1.329,41.547,3.954
		c10.287,1.986,17.01,11.93,15.028,22.213C310.824,73.161,302.88,79.468,293.972,79.468z"/>
	<path style="fill:#FFF082;" d="M453.064,246.523c-9.278,0-17.389-6.824-18.741-16.282c-7.675-53.649-38.833-100.546-85.48-128.663
		c-8.972-5.408-11.861-17.061-6.453-26.028c5.399-8.981,17.047-11.866,26.028-6.453c56.444,34.023,94.149,90.801,103.444,155.774
		c1.491,10.366-5.713,19.973-16.083,21.458C454.871,246.458,453.963,246.523,453.064,246.523z"/>
</g>
<g>
	<path style="fill:#464655;" d="M317.63,343.704c-29.787,0-55.778-13.528-63.204-32.898c-2.343-6.111,0.713-12.964,6.824-15.305
		s12.964,0.695,15.305,6.824c3.259,8.5,19.889,17.676,41.074,17.676c23.065,0,40.296-11.259,40.296-21.333
		c0-13.676-10.63-21.287-43.731-31.324c-24.121-7.305-60.556-18.351-60.556-54.009c0-25.25,28.111-45.037,63.991-45.037
		c29.797,0,55.787,13.528,63.213,32.898c2.343,6.111-0.713,12.964-6.824,15.305c-6.101,2.351-12.964-0.695-15.305-6.824
		c-3.259-8.5-19.889-17.676-41.083-17.676c-23.055,0-40.287,11.259-40.287,21.333c0,13.676,10.62,21.287,43.723,31.324
		c24.12,7.305,60.564,18.351,60.564,54.009C381.63,323.917,353.518,343.704,317.63,343.704z"/>
	<path style="fill:#464655;" d="M170.676,343.704c-16.945,0-33.222-6.222-45.843-17.509c-4.87-4.371-5.287-11.861-0.926-16.741
		c4.371-4.879,11.852-5.278,16.741-0.926c8.26,7.398,18.926,11.473,30.028,11.473c24.833,0,45.037-20.204,45.037-45.037v-82.963
		h-16.593c-6.546,0-11.852-5.306-11.852-11.852s5.306-11.852,11.852-11.852h28.444c6.546,0,11.852,5.306,11.852,11.852v94.815
		C239.417,312.87,208.583,343.704,170.676,343.704z"/>
</g>
<g>
</g>
<g>
</g>
<g>
</g>
<g>
</g>
<g>
</g>
<g>
</g>
<g>
</g>
<g>
</g>
<g>
</g>
<g>
</g>
<g>
</g>
<g>
</g>
<g>
</g>
<g>
</g>
<g>
</g>
</svg>
