<svg width="185.075" height="19.25" viewBox="0 0 185.075 19.25" xmlns="http://www.w3.org/2000/svg"><g id="svgGroup" stroke-linecap="round" fill-rule="evenodd" font-size="9pt" stroke="#ffffff" stroke-width="0.25mm" fill="#ffffff" style="stroke:#ffffff;stroke-width:0.25mm;fill:#ffffff"><path d="M 178.775 18.975 L 176.475 11.425 A 29.595 29.595 0 0 1 175.943 9.536 A 27.196 27.196 0 0 1 175.913 9.412 A 245.368 245.368 0 0 1 175.801 8.946 Q 175.644 8.288 175.55 7.875 L 175.45 7.875 A 18.628 18.628 0 0 1 175.392 8.177 Q 175.325 8.517 175.224 8.974 A 70.635 70.635 0 0 1 175.125 9.412 A 20.98 20.98 0 0 1 174.717 10.929 A 23.976 23.976 0 0 1 174.55 11.45 L 172.15 18.975 L 169.65 18.975 L 165.975 5.575 L 168.25 5.575 L 170.1 12.725 Q 170.375 13.8 170.625 14.9 Q 170.793 15.639 170.893 16.209 A 14.153 14.153 0 0 1 170.975 16.725 L 171.075 16.725 Q 171.144 16.433 171.23 16.046 A 110.649 110.649 0 0 0 171.313 15.675 Q 171.45 15.05 171.625 14.363 Q 171.8 13.675 171.975 13.125 L 174.35 5.575 L 176.75 5.575 L 179.05 13.125 Q 179.325 13.975 179.587 14.975 Q 179.788 15.741 179.894 16.345 A 9.97 9.97 0 0 1 179.95 16.7 L 180.05 16.7 A 8.09 8.09 0 0 1 180.099 16.358 Q 180.191 15.8 180.387 14.975 Q 180.65 13.875 180.95 12.725 L 182.825 5.575 L 185.075 5.575 L 181.35 18.975 L 178.775 18.975 Z M 36.4 0 L 36.4 9.925 Q 36.4 10.325 36.363 10.975 Q 36.337 11.422 36.317 11.786 A 162.779 162.779 0 0 0 36.3 12.1 L 36.4 12.1 A 11.525 11.525 0 0 1 36.484 11.989 Q 36.625 11.806 36.85 11.525 Q 37.15 11.15 37.463 10.763 Q 37.775 10.375 38 10.125 L 42.275 5.6 L 44.85 5.6 L 39.425 11.325 L 45.225 19 L 42.575 19 L 37.925 12.75 L 36.4 14.075 L 36.4 19 L 34.225 19 L 34.225 0 L 36.4 0 Z M 96.975 10.275 L 96.975 19 L 94.8 19 L 94.8 10.425 A 5.029 5.029 0 0 0 94.662 9.188 Q 94.155 7.2 91.8 7.2 Q 90.507 7.2 89.678 7.622 A 2.502 2.502 0 0 0 88.725 8.45 Q 88.118 9.343 87.944 10.797 A 10.604 10.604 0 0 0 87.875 12.05 L 87.875 19 L 85.675 19 L 85.675 5.6 L 87.45 5.6 L 87.775 7.425 L 87.9 7.425 Q 88.55 6.375 89.7 5.862 Q 90.85 5.35 92.125 5.35 A 7.899 7.899 0 0 1 93.502 5.462 Q 94.248 5.594 94.835 5.883 A 3.656 3.656 0 0 1 95.75 6.512 Q 96.975 7.675 96.975 10.275 Z M 7.825 3.125 L 7.825 19 L 5.575 19 L 5.575 3.125 L 0 3.125 L 0 1.15 L 13.375 1.15 L 13.375 3.125 L 7.825 3.125 Z M 140.05 19 L 137.525 19 L 132.45 5.6 L 134.8 5.6 L 137.65 13.5 Q 137.85 14.05 138.075 14.725 A 32.751 32.751 0 0 1 138.361 15.624 A 27.711 27.711 0 0 1 138.475 16.013 Q 138.65 16.625 138.725 17.05 L 138.825 17.05 A 11.575 11.575 0 0 1 138.88 16.825 Q 138.972 16.469 139.112 16 Q 139.3 15.375 139.538 14.7 A 95.784 95.784 0 0 0 139.733 14.138 Q 139.822 13.881 139.9 13.651 A 54.87 54.87 0 0 0 139.95 13.5 L 142.8 5.6 L 145.15 5.6 L 140.05 19 Z M 58.275 11.4 L 58.275 12.725 L 49.1 12.725 A 7.632 7.632 0 0 0 49.241 14.071 Q 49.506 15.38 50.263 16.188 Q 51.375 17.375 53.375 17.375 A 11.667 11.667 0 0 0 54.507 17.323 Q 55.073 17.268 55.567 17.154 A 7.002 7.002 0 0 0 55.637 17.137 A 12.065 12.065 0 0 0 57.017 16.713 A 14.424 14.424 0 0 0 57.675 16.45 L 57.675 18.375 A 10.81 10.81 0 0 1 56.167 18.912 A 9.476 9.476 0 0 1 55.65 19.037 Q 54.8 19.218 53.68 19.245 A 16.724 16.724 0 0 1 53.275 19.25 Q 51.375 19.25 49.913 18.475 Q 48.45 17.7 47.638 16.163 A 6.672 6.672 0 0 1 47.016 14.394 Q 46.825 13.478 46.825 12.4 A 11.005 11.005 0 0 1 46.956 10.655 Q 47.136 9.536 47.563 8.625 A 6.036 6.036 0 0 1 48.578 7.087 A 5.277 5.277 0 0 1 49.637 6.2 A 5.448 5.448 0 0 1 51.994 5.391 A 6.864 6.864 0 0 1 52.75 5.35 A 6.668 6.668 0 0 1 54.166 5.494 A 5.01 5.01 0 0 1 55.713 6.1 Q 56.95 6.85 57.613 8.212 A 6.438 6.438 0 0 1 58.166 9.994 A 8.668 8.668 0 0 1 58.275 11.4 Z M 120.85 11.4 L 120.85 12.725 L 111.675 12.725 A 7.632 7.632 0 0 0 111.816 14.071 Q 112.081 15.38 112.838 16.188 Q 113.95 17.375 115.95 17.375 A 11.667 11.667 0 0 0 117.082 17.323 Q 117.648 17.268 118.142 17.154 A 7.002 7.002 0 0 0 118.212 17.137 A 12.065 12.065 0 0 0 119.592 16.713 A 14.424 14.424 0 0 0 120.25 16.45 L 120.25 18.375 A 10.81 10.81 0 0 1 118.742 18.912 A 9.476 9.476 0 0 1 118.225 19.037 Q 117.375 19.218 116.255 19.245 A 16.724 16.724 0 0 1 115.85 19.25 Q 113.95 19.25 112.488 18.475 Q 111.025 17.7 110.213 16.163 A 6.672 6.672 0 0 1 109.591 14.394 Q 109.4 13.478 109.4 12.4 A 11.005 11.005 0 0 1 109.531 10.655 Q 109.711 9.536 110.138 8.625 A 6.036 6.036 0 0 1 111.153 7.087 A 5.277 5.277 0 0 1 112.212 6.2 A 5.448 5.448 0 0 1 114.569 5.391 A 6.864 6.864 0 0 1 115.325 5.35 A 6.668 6.668 0 0 1 116.741 5.494 A 5.01 5.01 0 0 1 118.288 6.1 Q 119.525 6.85 120.188 8.212 A 6.438 6.438 0 0 1 120.741 9.994 A 8.668 8.668 0 0 1 120.85 11.4 Z M 164.425 11.4 L 164.425 12.725 L 155.25 12.725 A 7.632 7.632 0 0 0 155.391 14.071 Q 155.656 15.38 156.412 16.188 Q 157.525 17.375 159.525 17.375 A 11.667 11.667 0 0 0 160.657 17.323 Q 161.223 17.268 161.717 17.154 A 7.002 7.002 0 0 0 161.787 17.137 A 12.065 12.065 0 0 0 163.167 16.713 A 14.424 14.424 0 0 0 163.825 16.45 L 163.825 18.375 A 10.81 10.81 0 0 1 162.317 18.912 A 9.476 9.476 0 0 1 161.8 19.037 Q 160.95 19.218 159.83 19.245 A 16.724 16.724 0 0 1 159.425 19.25 Q 157.525 19.25 156.062 18.475 Q 154.6 17.7 153.787 16.163 A 6.672 6.672 0 0 1 153.166 14.394 Q 152.975 13.478 152.975 12.4 A 11.005 11.005 0 0 1 153.106 10.655 Q 153.286 9.536 153.712 8.625 A 6.036 6.036 0 0 1 154.728 7.087 A 5.277 5.277 0 0 1 155.787 6.2 A 5.448 5.448 0 0 1 158.144 5.391 A 6.864 6.864 0 0 1 158.9 5.35 A 6.668 6.668 0 0 1 160.316 5.494 A 5.01 5.01 0 0 1 161.863 6.1 Q 163.1 6.85 163.762 8.212 A 6.438 6.438 0 0 1 164.316 9.994 A 8.668 8.668 0 0 1 164.425 11.4 Z M 82.525 17.7 L 82.525 19 L 76.075 19 L 76.075 17.7 L 78.175 17.225 L 78.175 2.95 L 76.075 2.45 L 76.075 1.15 L 82.525 1.15 L 82.525 2.45 L 80.425 2.95 L 80.425 17.225 L 82.525 17.7 Z M 68.025 17.175 L 68.025 18.85 A 2.163 2.163 0 0 1 67.763 18.958 Q 67.482 19.055 67.082 19.127 A 7.499 7.499 0 0 1 67.025 19.137 A 7.632 7.632 0 0 1 66.116 19.241 A 6.635 6.635 0 0 1 65.775 19.25 A 5.332 5.332 0 0 1 64.467 19.094 A 4.704 4.704 0 0 1 63.838 18.887 A 2.919 2.919 0 0 1 62.571 17.88 A 3.697 3.697 0 0 1 62.4 17.625 Q 61.85 16.725 61.85 15.1 L 61.85 7.3 L 59.95 7.3 L 59.95 6.25 L 61.875 5.375 L 62.75 2.525 L 64.05 2.525 L 64.05 5.6 L 67.925 5.6 L 67.925 7.3 L 64.05 7.3 L 64.05 15.05 A 4.051 4.051 0 0 0 64.102 15.721 Q 64.161 16.074 64.289 16.353 A 1.731 1.731 0 0 0 64.637 16.862 Q 65.225 17.45 66.15 17.45 A 6.184 6.184 0 0 0 67.093 17.376 A 6.834 6.834 0 0 0 67.175 17.363 A 10.301 10.301 0 0 0 67.512 17.301 Q 67.812 17.241 68.025 17.175 Z M 107.475 17.175 L 107.475 18.85 A 2.163 2.163 0 0 1 107.213 18.958 Q 106.932 19.055 106.532 19.127 A 7.499 7.499 0 0 1 106.475 19.137 A 7.632 7.632 0 0 1 105.566 19.241 A 6.635 6.635 0 0 1 105.225 19.25 A 5.332 5.332 0 0 1 103.917 19.094 A 4.704 4.704 0 0 1 103.288 18.887 A 2.919 2.919 0 0 1 102.021 17.88 A 3.697 3.697 0 0 1 101.85 17.625 Q 101.3 16.725 101.3 15.1 L 101.3 7.3 L 99.4 7.3 L 99.4 6.25 L 101.325 5.375 L 102.2 2.525 L 103.5 2.525 L 103.5 5.6 L 107.375 5.6 L 107.375 7.3 L 103.5 7.3 L 103.5 15.05 A 4.051 4.051 0 0 0 103.552 15.721 Q 103.611 16.074 103.739 16.353 A 1.731 1.731 0 0 0 104.087 16.862 Q 104.675 17.45 105.6 17.45 A 6.184 6.184 0 0 0 106.543 17.376 A 6.834 6.834 0 0 0 106.625 17.363 A 10.301 10.301 0 0 0 106.962 17.301 Q 107.262 17.241 107.475 17.175 Z M 31.275 6.075 L 30.6 7.9 A 10.481 10.481 0 0 0 30.037 7.708 Q 29.747 7.618 29.421 7.532 A 17.807 17.807 0 0 0 29.2 7.475 A 6.945 6.945 0 0 0 28.355 7.316 A 5.426 5.426 0 0 0 27.7 7.275 A 4.322 4.322 0 0 0 25.926 7.612 Q 23.75 8.583 23.75 12.35 A 9.796 9.796 0 0 0 23.843 13.75 Q 24.05 15.176 24.713 16.063 A 3.113 3.113 0 0 0 26.736 17.279 A 4.746 4.746 0 0 0 27.575 17.35 Q 28.588 17.35 29.378 17.159 A 5.414 5.414 0 0 0 29.512 17.125 A 10.093 10.093 0 0 0 30.553 16.787 A 8.482 8.482 0 0 0 31.05 16.575 L 31.05 18.525 A 6.098 6.098 0 0 1 29.911 18.973 A 7.077 7.077 0 0 1 29.563 19.063 A 6.616 6.616 0 0 1 28.847 19.184 Q 28.494 19.225 28.095 19.241 A 12.773 12.773 0 0 1 27.6 19.25 A 7.433 7.433 0 0 1 25.823 19.045 A 6.142 6.142 0 0 1 24.438 18.525 A 4.959 4.959 0 0 1 22.496 16.688 A 6.216 6.216 0 0 1 22.262 16.275 A 6.445 6.445 0 0 1 21.724 14.778 Q 21.555 14.053 21.501 13.203 A 13.002 13.002 0 0 1 21.475 12.375 Q 21.475 10.56 21.919 9.242 A 5.91 5.91 0 0 1 22.3 8.35 A 5.735 5.735 0 0 1 23.307 6.971 A 4.905 4.905 0 0 1 24.538 6.075 Q 25.95 5.35 27.75 5.35 Q 28.775 5.35 29.725 5.563 Q 30.431 5.72 30.943 5.927 A 4.48 4.48 0 0 1 31.275 6.075 Z M 132.075 5.5 L 131.8 7.525 A 6.648 6.648 0 0 0 131.415 7.449 A 8.424 8.424 0 0 0 131.087 7.4 A 6.078 6.078 0 0 0 130.572 7.355 A 5.154 5.154 0 0 0 130.35 7.35 Q 129.325 7.35 128.425 7.913 A 3.988 3.988 0 0 0 127.109 9.271 A 4.794 4.794 0 0 0 126.988 9.488 A 4.543 4.543 0 0 0 126.519 10.923 A 5.964 5.964 0 0 0 126.45 11.85 L 126.45 19 L 124.25 19 L 124.25 5.6 L 126.05 5.6 L 126.3 8.05 L 126.4 8.05 Q 127.05 6.95 128.075 6.15 A 3.777 3.777 0 0 1 130.282 5.355 A 4.751 4.751 0 0 1 130.5 5.35 A 8.611 8.611 0 0 1 130.942 5.362 A 10.903 10.903 0 0 1 131.312 5.388 Q 131.75 5.425 132.075 5.5 Z M 15.775 5.6 L 17.975 5.6 L 17.975 19 L 15.775 19 L 15.775 5.6 Z M 147.275 5.6 L 149.475 5.6 L 149.475 19 L 147.275 19 L 147.275 5.6 Z M 49.15 10.975 L 55.975 10.975 A 6.228 6.228 0 0 0 55.851 9.793 Q 55.705 9.092 55.386 8.538 A 3.586 3.586 0 0 0 55.175 8.212 A 2.472 2.472 0 0 0 53.749 7.27 Q 53.288 7.15 52.725 7.15 A 3.943 3.943 0 0 0 51.637 7.292 A 2.932 2.932 0 0 0 50.237 8.162 A 3.89 3.89 0 0 0 49.493 9.416 Q 49.299 9.931 49.203 10.551 A 7.518 7.518 0 0 0 49.15 10.975 Z M 111.725 10.975 L 118.55 10.975 A 6.228 6.228 0 0 0 118.426 9.793 Q 118.28 9.092 117.961 8.538 A 3.586 3.586 0 0 0 117.75 8.212 A 2.472 2.472 0 0 0 116.324 7.27 Q 115.863 7.15 115.3 7.15 A 3.943 3.943 0 0 0 114.212 7.292 A 2.932 2.932 0 0 0 112.812 8.162 A 3.89 3.89 0 0 0 112.068 9.416 Q 111.874 9.931 111.778 10.551 A 7.518 7.518 0 0 0 111.725 10.975 Z M 155.3 10.975 L 162.125 10.975 A 6.228 6.228 0 0 0 162.001 9.793 Q 161.855 9.092 161.536 8.538 A 3.586 3.586 0 0 0 161.325 8.212 A 2.472 2.472 0 0 0 159.899 7.27 Q 159.438 7.15 158.875 7.15 A 3.943 3.943 0 0 0 157.787 7.292 A 2.932 2.932 0 0 0 156.387 8.162 A 3.89 3.89 0 0 0 155.643 9.416 Q 155.449 9.931 155.353 10.551 A 7.518 7.518 0 0 0 155.3 10.975 Z M 16.9 0.575 Q 17.4 0.575 17.788 0.912 Q 18.175 1.25 18.175 1.975 Q 18.175 2.476 17.977 2.797 A 1.041 1.041 0 0 1 17.788 3.025 Q 17.4 3.375 16.9 3.375 A 1.426 1.426 0 0 1 16.408 3.293 A 1.265 1.265 0 0 1 15.975 3.025 Q 15.648 2.72 15.606 2.148 A 2.375 2.375 0 0 1 15.6 1.975 A 2.215 2.215 0 0 1 15.633 1.581 Q 15.671 1.367 15.756 1.201 A 0.985 0.985 0 0 1 15.975 0.912 A 1.306 1.306 0 0 1 16.782 0.579 A 1.704 1.704 0 0 1 16.9 0.575 Z M 148.4 0.575 Q 148.9 0.575 149.287 0.912 Q 149.675 1.25 149.675 1.975 Q 149.675 2.476 149.477 2.797 A 1.041 1.041 0 0 1 149.288 3.025 Q 148.9 3.375 148.4 3.375 A 1.426 1.426 0 0 1 147.908 3.293 A 1.265 1.265 0 0 1 147.475 3.025 Q 147.148 2.72 147.106 2.148 A 2.375 2.375 0 0 1 147.1 1.975 A 2.215 2.215 0 0 1 147.133 1.581 Q 147.171 1.367 147.256 1.201 A 0.985 0.985 0 0 1 147.475 0.912 A 1.306 1.306 0 0 1 148.282 0.579 A 1.704 1.704 0 0 1 148.4 0.575 Z" vector-effect="non-scaling-stroke"/></g></svg>