<svg id="Layer_1" enable-background="new 0 0 500 500" viewBox="0 0 500 500" xmlns="http://www.w3.org/2000/svg"><g clip-rule="evenodd" fill-rule="evenodd"><path d="m134.167 259.673c5.913 0 10.75 4.837 10.75 10.75v7.597c0 8.224 3.157 15.302 9.275 20.797l41.897 37.626c14.57 13.085 31.416 19.539 51 19.539h5.822c19.584 0 36.429-6.454 51-19.539l41.897-37.626c6.119-5.495 9.275-12.573 9.275-20.797v-7.597c0-5.913 4.837-10.75 10.75-10.75 5.912 0 10.75 4.837 10.75 10.75v10.75h40.312c7.391 0 13.437 6.047 13.437 13.438s-6.047 13.437-13.437 13.437h-19.925c-6.879 0-12.796 2.261-17.922 6.848l-57.206 51.185c-10.158 9.089-15.403 20.821-15.403 34.451v52.106c0 5.965-4.88 10.845-10.845 10.845h-91.184c-5.965 0-10.845-4.88-10.845-10.845v-52.108c0-13.63-5.245-25.362-15.403-34.451l-57.207-51.185c-5.127-4.587-11.043-6.848-17.922-6.848h-19.927c-7.391 0-13.437-6.046-13.437-13.437s6.047-13.437 13.437-13.437h40.312v-10.75c0-5.912 4.837-10.749 10.749-10.749z" fill="#60b7fe"/><path d="m244.701 355.948 8.21.034c19.584 0 36.429-6.454 51-19.539l41.897-37.626c6.119-5.495 9.275-12.573 9.275-20.797v-7.597c0-3.989 2.202-7.489 5.451-9.343 3.249 1.855 5.451 5.354 5.451 9.343v10.75h40.312c7.391 0 13.437 6.047 13.437 13.438s-6.047 13.437-13.437 13.437h-19.925c-6.879 0-12.796 2.261-17.922 6.848l-57.206 51.185c-10.158 9.089-15.403 20.821-15.403 34.451v52.106c0 5.965-4.88 10.845-10.845 10.845h-80.586c-5.965 0-10.845-4.88-10.845-10.845v-52.108c0-13.63-5.245-25.362-15.403-34.451l-57.207-51.185c-5.127-4.587-11.043-6.848-17.922-6.848h-19.927c-7.391 0-13.437-6.046-13.437-13.437s6.047-13.437 13.437-13.437h40.312v-10.75c0-3.989 2.202-7.489 5.451-9.343 3.249 1.855 5.451 5.354 5.451 9.343v7.597c0 8.224 3.157 15.302 9.275 20.797l41.897 37.626c14.57 13.085 31.416 19.539 51 19.539z" fill="#88c8fe"/><ellipse cx="250" cy="315.77" fill="#f0b16e" rx="29.562" ry="29.562" transform="matrix(.16 -.987 .987 .16 -101.738 511.961)"/><path d="m244.701 344.858c-13.798-2.497-24.263-14.57-24.263-29.088s10.465-26.591 24.263-29.088c13.798 2.497 24.263 14.57 24.263 29.088s-10.465 26.591-24.263 29.088z" fill="#fcd4a9"/><path d="m154.708 110.771c-2.691 2.504-6.903 2.353-9.408-.339-2.504-2.691-2.353-6.903.339-9.408 11.496-10.718 24.588-19.694 38.839-26.442 3.325-1.569 7.292-.145 8.861 3.179s.145 7.292-3.179 8.861c-12.945 6.13-25.011 14.395-35.452 24.149zm155.133-24.148c-3.324-1.569-4.748-5.536-3.179-8.861 1.569-3.324 5.536-4.748 8.861-3.179 14.251 6.748 27.343 15.724 38.839 26.442 2.691 2.504 2.843 6.716.339 9.408-2.504 2.691-6.716 2.843-9.408.339-10.54-9.827-22.407-17.952-35.452-24.149z" fill="#88c8fe"/><path d="m205.206 147.813v-15.307c0-24.637 20.157-44.794 44.794-44.794s44.794 20.157 44.794 44.794v15.307c0 5.174-4.22 9.395-9.395 9.395h-70.798c-5.175 0-9.395-4.221-9.395-9.395z" fill="#14b5a2"/><path d="m250 87.712c14.137 0 25.597-11.46 25.597-25.596 0-14.137-11.46-25.597-25.597-25.597-14.136 0-25.596 11.46-25.596 25.597 0 14.136 11.46 25.596 25.596 25.596z" fill="#f0b16e"/><path d="m65.127 222.693v-15.307c0-24.637 20.157-44.794 44.794-44.794s44.794 20.157 44.794 44.794v15.307c0 5.174-4.221 9.395-9.395 9.395h-70.798c-5.174 0-9.395-4.221-9.395-9.395z" fill="#e33f65"/><path d="m109.921 162.592c14.137 0 25.597-11.46 25.597-25.596 0-14.137-11.46-25.597-25.597-25.597-14.136 0-25.596 11.46-25.596 25.597 0 14.136 11.46 25.596 25.596 25.596z" fill="#f0b16e"/><path d="m345.285 222.693v-15.307c0-24.637 20.157-44.794 44.794-44.794s44.794 20.157 44.794 44.794v15.307c0 5.174-4.22 9.395-9.395 9.395h-70.798c-5.174 0-9.395-4.221-9.395-9.395z" fill="#ffbf31"/><path d="m390.079 162.592c14.137 0 25.597-11.46 25.597-25.596 0-14.137-11.46-25.597-25.597-25.597-14.136 0-25.596 11.46-25.596 25.597 0 14.136 11.46 25.596 25.596 25.596z" fill="#f0b16e"/><path d="m205.206 147.813v-15.307c0-23.119 17.749-42.292 40.295-44.567 22.545 2.275 40.295 21.448 40.295 44.567v15.307c0 5.174-4.22 9.395-9.395 9.395h-61.8c-5.175 0-9.395-4.221-9.395-9.395z" fill="#19cfba"/><path d="m245.5 36.914c-11.991 2.126-21.097 12.6-21.097 25.202 0 12.601 9.106 23.075 21.097 25.201 11.991-2.126 21.098-12.6 21.098-25.201 0-12.602-9.107-23.076-21.098-25.202z" fill="#fcd4a9"/><path d="m65.127 222.693v-15.307c0-23.119 17.75-42.292 40.295-44.567 22.545 2.275 40.295 21.448 40.295 44.567v15.307c0 5.174-4.221 9.395-9.395 9.395h-61.8c-5.174 0-9.395-4.221-9.395-9.395z" fill="#fa6e85"/><path d="m105.422 111.794c-11.991 2.126-21.097 12.6-21.097 25.202 0 12.601 9.106 23.075 21.097 25.201 11.991-2.126 21.097-12.6 21.097-25.201 0-12.602-9.106-23.076-21.097-25.202z" fill="#fcd4a9"/><path d="m345.285 222.693v-15.307c0-23.119 17.749-42.292 40.295-44.567 22.545 2.275 40.295 21.448 40.295 44.567v15.307c0 5.174-4.22 9.395-9.395 9.395h-61.8c-5.174 0-9.395-4.221-9.395-9.395z" fill="#ffe177"/><path d="m385.58 111.794c-11.99 2.126-21.097 12.601-21.097 25.202s9.106 23.075 21.097 25.201c11.991-2.126 21.098-12.6 21.098-25.201-.001-12.602-9.107-23.076-21.098-25.202z" fill="#fcd4a9"/></g></svg>