<svg id="Layer_1" height="512" viewBox="0 0 128 128" width="512" xmlns="http://www.w3.org/2000/svg" data-name="Layer 1"><path d="m115.86 44.8-109.36-4.28 77.45-11.52 3.46-.51 25.46-3.79z" fill="#fba616"/><path d="m86.9 36.91a2.461 2.461 0 0 1 -.26.02 1.752 1.752 0 0 1 -1.73-1.5l-.96-6.43 3.46-.51.96 6.43a1.763 1.763 0 0 1 -1.47 1.99z" fill="#fbdd6b"/><path d="m114.67 65.08a9.659 9.659 0 0 0 6.83 16.49v21.73h-115v-21.73a9.655 9.655 0 1 0 0-19.31v-21.73h115v21.73a9.653 9.653 0 0 0 -6.83 2.82z" fill="#fbdd6b"/><path d="m114.67 65.08a9.659 9.659 0 0 0 6.83 16.49v21.73h-115v-21.73a9.655 9.655 0 1 0 0-19.31v-21.73h115v21.73a9.653 9.653 0 0 0 -6.83 2.82z" fill="#fbdd6b"/><g fill="#fba616"><path d="m114.67 65.08a9.659 9.659 0 0 0 6.83 16.49v21.73h-5.64v-21.73a9.655 9.655 0 1 1 0-19.31v-21.73h5.64v21.73a9.653 9.653 0 0 0 -6.83 2.82z"/><path d="m114.67 65.08a9.659 9.659 0 0 0 6.83 16.49v21.73h-5.64v-21.73a9.655 9.655 0 1 1 0-19.31v-21.73h5.64v21.73a9.653 9.653 0 0 0 -6.83 2.82z"/><path d="m93.86 40.53v6.5a1.75 1.75 0 0 1 -3.5 0v-6.5z"/><path d="m92.11 74.61a1.746 1.746 0 0 0 -1.75 1.75v11.55a1.75 1.75 0 0 0 3.5 0v-11.55a1.752 1.752 0 0 0 -1.75-1.75zm0-20.44a1.746 1.746 0 0 0 -1.75 1.75v11.55a1.75 1.75 0 0 0 3.5 0v-11.55a1.752 1.752 0 0 0 -1.75-1.75z"/><path d="m93.86 96.8v6.5h-3.5v-6.5a1.75 1.75 0 0 1 3.5 0z"/><path d="m49.006 57.02h-21.725a1.75 1.75 0 0 1 0-3.5h21.725a1.75 1.75 0 1 1 0 3.5z"/><path d="m70.73 68.116h-43.449a1.75 1.75 0 0 1 0-3.5h43.449a1.75 1.75 0 0 1 0 3.5z"/><path d="m70.73 79.214h-43.449a1.75 1.75 0 0 1 0-3.5h43.449a1.75 1.75 0 0 1 0 3.5z"/><path d="m70.73 90.311h-43.449a1.75 1.75 0 0 1 0-3.5h43.449a1.75 1.75 0 0 1 0 3.5z"/></g><path d="m52.542 101.546h-3.709a1.75 1.75 0 0 0 0 3.5h3.709a1.75 1.75 0 0 0 0-3.5z" fill="#232629"/><path d="m121.5 64a1.75 1.75 0 0 0 1.75-1.75v-21.716a1.75 1.75 0 0 0 -1.75-1.75h-91.432l54.14-8.052.7 4.7a1.752 1.752 0 0 0 1.729 1.492 1.817 1.817 0 0 0 .26-.019 1.752 1.752 0 0 0 1.474-1.989l-.7-4.7 23.729-3.528.723 4.87a1.75 1.75 0 1 0 3.463-.514l-.979-6.6a1.751 1.751 0 0 0 -1.989-1.475l-106.376 15.82a1.742 1.742 0 0 0 -1.351 1.057l-.01.027a1.74 1.74 0 0 0 -.088.282c-.007.032-.01.065-.015.1a1.721 1.721 0 0 0 -.023.232v.049 21.719a1.75 1.75 0 0 0 1.745 1.745 7.9 7.9 0 0 1 4.229 1.223 1.75 1.75 0 1 0 1.871-2.952 11.372 11.372 0 0 0 -4.35-1.632v-18.355h82.106v4.75a1.75 1.75 0 0 0 3.5 0v-4.75h25.894v18.353a11.413 11.413 0 0 0 0 22.555v18.354h-25.894v-4.746a1.75 1.75 0 0 0 -3.5 0v4.75h-30.4a1.75 1.75 0 0 0 0 3.5h61.544a1.75 1.75 0 0 0 1.75-1.75v-21.725a1.75 1.75 0 0 0 -1.75-1.75 7.91 7.91 0 1 1 0-15.82z" fill="#232629"/><path d="m41 101.546h-32.75v-18.355a11.429 11.429 0 0 0 9.66-11.276q0-.507-.044-1a1.75 1.75 0 0 0 -3.486.3c.02.231.03.465.03.7a7.92 7.92 0 0 1 -7.91 7.91 1.75 1.75 0 0 0 -1.75 1.75v21.725a1.75 1.75 0 0 0 1.75 1.75h34.5a1.75 1.75 0 0 0 0-3.5z" fill="#232629"/><path d="m92.106 69.222a1.75 1.75 0 0 0 1.75-1.75v-11.552a1.75 1.75 0 0 0 -3.5 0v11.552a1.75 1.75 0 0 0 1.75 1.75z" fill="#232629"/><path d="m90.356 87.909a1.75 1.75 0 0 0 3.5 0v-11.552a1.75 1.75 0 0 0 -3.5 0z" fill="#232629"/><path d="m27.281 57.02h21.725a1.75 1.75 0 1 0 0-3.5h-21.725a1.75 1.75 0 0 0 0 3.5z" fill="#232629"/><path d="m27.281 68.116h43.449a1.75 1.75 0 0 0 0-3.5h-43.449a1.75 1.75 0 0 0 0 3.5z" fill="#232629"/><path d="m27.281 79.214h43.449a1.75 1.75 0 0 0 0-3.5h-43.449a1.75 1.75 0 0 0 0 3.5z" fill="#232629"/><path d="m27.281 90.311h43.449a1.75 1.75 0 0 0 0-3.5h-43.449a1.75 1.75 0 0 0 0 3.5z" fill="#232629"/></svg>